<svg width="53" height="47" viewBox="0 0 53 47" fill="none" xmlns="http://www.w3.org/2000/svg">
<path d="M44.2525 18.0077C43.9461 18.1035 43.6936 18.173 43.5102 18.2222L41.0664 14.836L40.0885 13.481L40.1614 15.1504L41.3895 43.247C35.2622 46.2905 30.8653 46.5002 26.5 46.5002C22.1332 46.5002 17.6573 46.2902 11.5276 43.1767L12.7558 15.077L12.8288 13.4075L11.8508 14.7625L9.39406 18.1666C9.21836 18.1234 8.97319 18.058 8.67466 17.9658C8.0306 17.7669 7.14179 17.4441 6.16806 16.9501C4.27442 15.9892 2.09118 14.3974 0.735926 11.8398C0.760711 11.7977 0.788611 11.7504 0.819451 11.6981C0.961899 11.4568 1.167 11.111 1.41731 10.694C1.91809 9.85959 2.59904 8.74111 3.32074 7.60283C4.04334 6.46313 4.80281 5.30993 5.46129 4.40348C5.79098 3.94964 6.09002 3.56506 6.34272 3.27735C6.61278 2.96988 6.78058 2.83173 6.84821 2.798C6.94722 2.74861 7.14728 2.68835 7.47163 2.62858C7.78436 2.57095 8.17381 2.52034 8.62493 2.47387C9.3983 2.39422 10.3246 2.32946 11.3128 2.26037C11.4787 2.24877 11.6464 2.23705 11.8153 2.22512C12.9848 2.14252 14.2119 2.05002 15.325 1.91764C16.2933 1.80248 17.2012 1.65439 17.9197 1.44719C18.0254 1.54473 18.1672 1.67085 18.3428 1.81699C18.7563 2.161 19.3599 2.61761 20.1265 3.07395C21.657 3.98512 23.8572 4.9068 26.5 4.9068C29.1429 4.9068 31.343 3.98512 32.8736 3.07395C33.6401 2.61761 34.2437 2.161 34.6572 1.81699C34.8319 1.67165 34.9731 1.54611 35.0786 1.44879C35.7819 1.65558 36.6797 1.80301 37.6399 1.91761C38.7493 2.05003 39.9792 2.14253 41.1538 2.22513C41.3283 2.2374 41.5015 2.24945 41.6729 2.26137C42.6608 2.33008 43.5885 2.39462 44.3638 2.47391C44.8182 2.52038 45.2107 2.57102 45.5256 2.62868C45.8524 2.68853 46.0533 2.74883 46.1518 2.798C46.2185 2.83124 46.3847 2.96844 46.6524 3.27576C46.9027 3.56318 47.1984 3.9475 47.5242 4.40123C48.1748 5.30744 48.9239 6.46045 49.6362 7.60009C50.3475 8.73828 51.0181 9.85669 51.5111 10.691C51.7575 11.108 51.9594 11.4538 52.0996 11.6951C52.1313 11.7497 52.1599 11.799 52.1851 11.8425C50.8683 14.4327 48.686 16.0248 46.7812 16.9863C45.8026 17.4803 44.9056 17.8035 44.2525 18.0077Z" fill="white" stroke="#28804B"/>
<path d="M26.6656 5.28745C25.3406 5.28745 24.0984 5.06714 22.7734 4.62652C21.7797 4.25934 20.7031 3.81872 19.7094 3.23122C18.0531 2.27654 16.9766 1.24843 16.9766 1.24843L18.55 0.146874L17.8047 0.660932L18.55 0.146874C18.55 0.146874 19.4609 1.02812 20.9516 1.90936C22.2766 2.64373 24.3469 3.59841 26.6656 3.59841C29.3156 3.59841 31.8828 2.34998 34.2844 0L35.8578 1.10155C34.3672 2.57029 32.8766 3.67184 31.2203 4.33277C29.8125 4.92027 28.3219 5.28745 26.6656 5.28745Z" fill="#28804B"/>
<path d="M10.7656 17.1839C7.86719 16.9636 5.38281 15.7152 3.39531 13.4386C2.23594 12.1168 1.49063 10.7949 1.15937 10.0605L0 12.1168C0.414062 12.8511 0.99375 13.659 1.73906 14.4668C2.89844 15.7886 4.22344 16.8167 5.63125 17.5511C6.87344 18.212 8.19844 18.6527 9.68906 18.7995L10.7656 17.1839Z" fill="#28804B"/>
<path d="M42.2344 17.2581C45.1328 17.0378 47.6172 15.7894 49.6047 13.5129C50.7641 12.191 51.5094 10.8691 51.8406 10.1348L53 12.1176C52.5859 12.8519 52.0063 13.6597 51.2609 14.4675C50.1016 15.7894 48.7766 16.8175 47.3688 17.5519C46.1266 18.2128 44.7187 18.6534 43.3109 18.8003L42.2344 17.2581Z" fill="#28804B"/>
</svg>
