<svg width="29" height="25" viewBox="0 0 29 25" fill="none" xmlns="http://www.w3.org/2000/svg">
<path fill-rule="evenodd" clip-rule="evenodd" d="M3 0C1.34315 0 0 1.34315 0 3V21.4793C0 23.1362 1.34315 24.4793 3 24.4793H25.041C26.6979 24.4793 28.041 23.1362 28.041 21.4793V3C28.041 1.34315 26.6979 0 25.041 0H3ZM6.90381 11.123C8.12279 10.1479 9.77609 9.6 11.5 9.6H12V11.2H14V9.6H25V12L18 13.528V14.8C18 15.4829 17.8319 16.1591 17.5052 16.79C17.1786 17.4208 16.6998 17.9941 16.0962 18.477C15.4926 18.9598 14.7761 19.3428 13.9874 19.6042C13.1988 19.8655 12.3536 20 11.5 20C9.77609 20 8.12279 19.4521 6.90381 18.477C6.30023 17.9941 5.82144 17.4208 5.49478 16.79C5.16813 16.1591 5 15.4829 5 14.8C5 13.4209 5.68482 12.0982 6.90381 11.123ZM14 8V4H12V8H14ZM7.43 8.8C8.04 8.544 8.68 8.352 9.35 8.224L6.76 5.36L5.14 6.304L7.43 8.8ZM19.32 8L20.86 6.304L19.24 5.36L16.85 8H19.32Z" fill="#1B1A1A"/>
</svg>
