<svg width="10" height="18" viewBox="0 0 10 18" fill="none" xmlns="http://www.w3.org/2000/svg">
<path d="M7.82007 0.801296C8.11213 0.800763 8.39518 0.895701 8.62007 1.06963C8.74664 1.16757 8.85127 1.28785 8.92796 1.42359C9.00465 1.55933 9.05189 1.70785 9.06699 1.86066C9.08208 2.01347 9.06473 2.16755 9.01592 2.31409C8.96712 2.46063 8.88782 2.59674 8.78257 2.71463L3.18257 8.96796L8.58257 15.233C8.6864 15.3523 8.76394 15.4896 8.81073 15.637C8.85752 15.7844 8.87263 15.939 8.85521 16.0918C8.83779 16.2447 8.78816 16.3928 8.7092 16.5278C8.63023 16.6627 8.52347 16.7817 8.39507 16.878C8.26573 16.9842 8.11428 17.0643 7.9502 17.1133C7.78612 17.1623 7.61296 17.1791 7.4416 17.1626C7.27023 17.1462 7.10436 17.0969 6.95438 17.0178C6.8044 16.9387 6.67356 16.8315 6.57007 16.703L0.53257 9.70296C0.348718 9.4942 0.248211 9.23235 0.248211 8.96213C0.248211 8.6919 0.348718 8.43005 0.53257 8.22129L6.78257 1.2213C6.90796 1.08011 7.06725 0.968502 7.24752 0.895528C7.42778 0.822555 7.62393 0.79027 7.82007 0.801296Z" fill="white"/>
</svg>
