<svg width="10" height="18" viewBox="0 0 10 18" fill="none" xmlns="http://www.w3.org/2000/svg">
<path d="M1.5 17.1667C1.20794 17.1672 0.924892 17.0723 0.700002 16.8983C0.573429 16.8004 0.468802 16.6801 0.392112 16.5444C0.315422 16.4086 0.268177 16.2601 0.253082 16.1073C0.237987 15.9545 0.25534 15.8004 0.304145 15.6539C0.352951 15.5073 0.43225 15.3712 0.537502 15.2533L6.1375 9L0.737503 2.735C0.633671 2.61567 0.556131 2.47835 0.509341 2.33096C0.462552 2.18356 0.447434 2.02899 0.464858 1.87612C0.482282 1.72326 0.531903 1.57511 0.610871 1.4402C0.689838 1.30529 0.796594 1.18628 0.925003 1.09C1.05434 0.983793 1.20579 0.90368 1.36987 0.854693C1.53395 0.805706 1.7071 0.788902 1.87847 0.805334C2.04984 0.821766 2.21571 0.871081 2.36569 0.950183C2.51567 1.02929 2.64651 1.13647 2.75 1.265L8.7875 8.265C8.97135 8.47376 9.07186 8.73561 9.07186 9.00584C9.07186 9.27606 8.97135 9.53791 8.7875 9.74667L2.5375 16.7467C2.41211 16.8879 2.25281 16.9995 2.07255 17.0724C1.89229 17.1454 1.69614 17.1777 1.5 17.1667Z" fill="white"/>
</svg>
