<svg width="29" height="25" viewBox="0 0 29 25" fill="none" xmlns="http://www.w3.org/2000/svg">
<path d="M24.7694 2.6873e-08H3.27157C2.84192 -5.1427e-05 2.41648 0.0737867 2.01952 0.217297C1.62257 0.360808 1.26189 0.571179 0.958089 0.836395C0.654284 1.10161 0.413304 1.41648 0.248913 1.76301C0.0845225 2.10954 -5.89095e-05 2.48095 3.0783e-08 2.85602V21.6233C-5.89095e-05 21.9984 0.0845225 22.3698 0.248913 22.7163C0.413304 23.0628 0.654284 23.3777 0.958089 23.6429C1.26189 23.9081 1.62257 24.1185 2.01952 24.262C2.41648 24.4055 2.84192 24.4794 3.27157 24.4793H24.7694C25.1991 24.4794 25.6245 24.4055 26.0215 24.262C26.4184 24.1185 26.7791 23.9081 27.0829 23.6429C27.3867 23.3777 27.6277 23.0628 27.7921 22.7163C27.9565 22.3698 28.0411 21.9984 28.041 21.6233V2.85602C28.0411 2.48095 27.9565 2.10954 27.7921 1.76301C27.6277 1.41648 27.3867 1.10161 27.0829 0.836395C26.7791 0.571179 26.4184 0.360808 26.0215 0.217297C25.6245 0.0737867 25.1991 -5.1427e-05 24.7694 2.6873e-08ZM21.0142 7.83713C21.1003 7.83713 21.1829 7.86701 21.2439 7.92019C21.3048 7.97338 21.339 8.04551 21.339 8.12073C21.339 8.19595 21.3048 8.26808 21.2439 8.32127C21.1829 8.37445 21.1003 8.40434 21.0142 8.40434C20.928 8.40434 20.8454 8.37445 20.7844 8.32127C20.7235 8.26808 20.6893 8.19595 20.6893 8.12073C20.6893 8.04551 20.7235 7.97338 20.7844 7.92019C20.8454 7.86701 20.928 7.83713 21.0142 7.83713ZM20.5044 7.18452C20.5405 7.18323 20.5765 7.18832 20.6102 7.19948C20.644 7.21064 20.6748 7.22765 20.7009 7.24947C20.7269 7.2713 20.7476 7.29749 20.7618 7.32648C20.776 7.35547 20.7833 7.38667 20.7833 7.41818C20.7833 7.4497 20.776 7.48089 20.7618 7.50988C20.7476 7.53887 20.7269 7.56507 20.7009 7.58689C20.6748 7.60872 20.644 7.62572 20.6102 7.63688C20.5765 7.64804 20.5405 7.65313 20.5044 7.65184C20.4353 7.64937 20.37 7.62367 20.3221 7.58012C20.2742 7.53657 20.2475 7.47855 20.2475 7.41818C20.2475 7.35782 20.2742 7.29979 20.3221 7.25624C20.37 7.21269 20.4353 7.18699 20.5044 7.18452ZM20.5807 8.43606C20.5807 8.51128 20.5465 8.58342 20.4855 8.6366C20.4246 8.68979 20.342 8.71967 20.2558 8.71967C20.1697 8.71967 20.087 8.68979 20.0261 8.6366C19.9652 8.58342 19.931 8.51128 19.931 8.43606C19.931 8.36085 19.9652 8.28871 20.0261 8.23553C20.087 8.18234 20.1697 8.15246 20.2558 8.15246C20.342 8.15246 20.4246 8.18234 20.4855 8.23553C20.5465 8.28871 20.5807 8.36085 20.5807 8.43606ZM19.769 6.80181C19.805 6.80052 19.841 6.80561 19.8748 6.81677C19.9086 6.82793 19.9394 6.84494 19.9654 6.86676C19.9915 6.88859 20.0122 6.91478 20.0264 6.94377C20.0405 6.97276 20.0478 7.00396 20.0478 7.03547C20.0478 7.06699 20.0405 7.09818 20.0264 7.12717C20.0122 7.15616 19.9915 7.18236 19.9654 7.20418C19.9394 7.22601 19.9086 7.24301 19.8748 7.25417C19.841 7.26533 19.805 7.27042 19.769 7.26913C19.6999 7.26666 19.6346 7.24096 19.5867 7.19742C19.5388 7.15387 19.512 7.09584 19.512 7.03547C19.512 6.97511 19.5388 6.91708 19.5867 6.87353C19.6346 6.82998 19.6999 6.80428 19.769 6.80181ZM19.7376 7.53864C19.8087 7.53864 19.8769 7.56329 19.9271 7.60719C19.9774 7.65108 20.0057 7.71061 20.0057 7.77269C20.0057 7.83476 19.9774 7.89429 19.9271 7.93819C19.8769 7.98208 19.8087 8.00674 19.7376 8.00674C19.6665 8.00674 19.5983 7.98208 19.548 7.93819C19.4977 7.89429 19.4695 7.83476 19.4695 7.77269C19.4695 7.71061 19.4977 7.65108 19.548 7.60719C19.5983 7.56329 19.6665 7.53864 19.7376 7.53864ZM18.9887 6.73835C19.0533 6.73835 19.1153 6.76076 19.1609 6.80065C19.2066 6.84054 19.2323 6.89464 19.2323 6.95106C19.2323 7.00747 19.2066 7.06157 19.1609 7.10146C19.1153 7.14135 19.0533 7.16376 18.9887 7.16376C18.924 7.16376 18.8621 7.14135 18.8164 7.10146C18.7707 7.06157 18.745 7.00747 18.745 6.95106C18.745 6.89464 18.7707 6.84054 18.8164 6.80065C18.8621 6.76076 18.924 6.73835 18.9887 6.73835ZM18.9792 7.34904C19.0121 7.34784 19.045 7.35246 19.0758 7.36263C19.1066 7.37279 19.1347 7.3883 19.1585 7.40821C19.1823 7.42812 19.2012 7.45202 19.2141 7.47848C19.227 7.50493 19.2336 7.53339 19.2336 7.56215C19.2335 7.5909 19.2268 7.61935 19.2139 7.64578C19.2009 7.67222 19.182 7.69609 19.1582 7.71596C19.1344 7.73583 19.1062 7.7513 19.0754 7.76141C19.0445 7.77153 19.0117 7.7761 18.9788 7.77484C18.9159 7.77244 18.8565 7.74893 18.813 7.70923C18.7696 7.66952 18.7453 7.61669 18.7454 7.56176C18.7454 7.50682 18.7698 7.45403 18.8134 7.41439C18.8569 7.37476 18.9164 7.35135 18.9792 7.34904ZM16.6764 3.45261C17.1933 3.45261 17.689 3.63185 18.0544 3.95089C18.4199 4.26994 18.6252 4.70265 18.6252 5.15385C18.6252 5.60504 18.4199 6.03776 18.0544 6.3568C17.689 6.67585 17.1933 6.85509 16.6764 6.85509C16.1596 6.85509 15.6639 6.67585 15.2985 6.3568C14.933 6.03776 14.7277 5.60504 14.7277 5.15385C14.7277 4.70265 14.933 4.26994 15.2985 3.95089C15.6639 3.63185 16.1596 3.45261 16.6764 3.45261ZM17.2427 8.59001C17.2098 8.59122 17.177 8.5866 17.1462 8.57643C17.1153 8.56626 17.0872 8.55075 17.0634 8.53084C17.0397 8.51093 17.0208 8.48703 17.0079 8.46057C16.995 8.43412 16.9883 8.40566 16.9884 8.37691C16.9884 8.34815 16.9951 8.3197 17.0081 8.29327C17.021 8.26683 17.04 8.24296 17.0638 8.22309C17.0876 8.20322 17.1157 8.18776 17.1466 8.17764C17.1774 8.16752 17.2103 8.16295 17.2432 8.16421C17.306 8.16662 17.3654 8.19012 17.4089 8.22983C17.4524 8.26953 17.4766 8.32236 17.4766 8.3773C17.4765 8.43223 17.4522 8.48503 17.4086 8.52466C17.365 8.56429 17.3056 8.58771 17.2427 8.59001ZM17.4868 9.07417C17.4882 9.1029 17.4829 9.13158 17.4713 9.15847C17.4596 9.18537 17.4418 9.20993 17.419 9.23067C17.3962 9.25141 17.3688 9.26791 17.3385 9.27918C17.3082 9.29044 17.2756 9.29623 17.2427 9.29621C17.2098 9.29618 17.1772 9.29033 17.1469 9.27902C17.1166 9.26771 17.0893 9.25117 17.0665 9.23039C17.0437 9.20961 17.026 9.18502 17.0144 9.1581C17.0029 9.13119 16.9976 9.10251 16.9991 9.07378C17.0018 9.0189 17.0287 8.96707 17.0742 8.9291C17.1197 8.89113 17.1802 8.86997 17.2432 8.87002C17.3061 8.87007 17.3666 8.89133 17.412 8.92937C17.4574 8.96741 17.4842 9.01929 17.4868 9.07417ZM17.3284 7.67182C17.3284 7.61541 17.3541 7.56131 17.3998 7.52142C17.4455 7.48153 17.5074 7.45912 17.5721 7.45912C17.6367 7.45912 17.6987 7.48153 17.7444 7.52142C17.7901 7.56131 17.8157 7.61541 17.8157 7.67182C17.8157 7.72823 17.7901 7.78233 17.7444 7.82222C17.6987 7.86211 17.6367 7.88452 17.5721 7.88452C17.5074 7.88452 17.4455 7.86211 17.3998 7.82222C17.3541 7.78233 17.3284 7.72823 17.3284 7.67182ZM18.0051 8.64093C17.9731 8.64093 17.9414 8.63543 17.9118 8.62474C17.8823 8.61405 17.8554 8.59838 17.8328 8.57863C17.8102 8.55888 17.7922 8.53543 17.78 8.50963C17.7677 8.48382 17.7614 8.45616 17.7614 8.42823C17.7614 8.4003 17.7677 8.37264 17.78 8.34683C17.7922 8.32102 17.8102 8.29758 17.8328 8.27783C17.8554 8.25807 17.8823 8.24241 17.9118 8.23172C17.9414 8.22103 17.9731 8.21553 18.0051 8.21553C18.0697 8.21553 18.1317 8.23794 18.1774 8.27783C18.2231 8.31772 18.2487 8.37182 18.2487 8.42823C18.2487 8.48464 18.2231 8.53874 18.1774 8.57863C18.1317 8.61852 18.0697 8.64093 18.0051 8.64093ZM18.2487 9.07417C18.2487 9.13059 18.2231 9.18469 18.1774 9.22458C18.1317 9.26447 18.0697 9.28688 18.0051 9.28688C17.9405 9.28688 17.8785 9.26447 17.8328 9.22458C17.7871 9.18469 17.7614 9.13059 17.7614 9.07417C17.7614 9.01776 17.7871 8.96366 17.8328 8.92377C17.8785 8.88388 17.9405 8.86147 18.0051 8.86147C18.0697 8.86147 18.1317 8.88388 18.1774 8.92377C18.2231 8.96366 18.2487 9.01776 18.2487 9.07417ZM17.9732 7.16807C17.9732 7.11166 17.9989 7.05755 18.0446 7.01766C18.0903 6.97778 18.1523 6.95537 18.2169 6.95537C18.2815 6.95537 18.3435 6.97778 18.3892 7.01766C18.4349 7.05755 18.4605 7.11166 18.4605 7.16807C18.4605 7.22448 18.4349 7.27858 18.3892 7.31847C18.3435 7.35836 18.2815 7.38077 18.2169 7.38077C18.1523 7.38077 18.0903 7.35836 18.0446 7.31847C17.9989 7.27858 17.9732 7.22448 17.9732 7.16807ZM18.0683 7.82929C18.0683 7.80136 18.0746 7.7737 18.0869 7.74789C18.0991 7.72209 18.1171 7.69864 18.1397 7.67889C18.1623 7.65914 18.1892 7.64347 18.2188 7.63278C18.2483 7.62209 18.28 7.61659 18.312 7.61659C18.344 7.61659 18.3757 7.62209 18.4052 7.63278C18.4348 7.64347 18.4617 7.65914 18.4843 7.67889C18.5069 7.69864 18.5249 7.72209 18.5371 7.74789C18.5493 7.7737 18.5556 7.80136 18.5556 7.82929C18.5556 7.8857 18.53 7.93981 18.4843 7.97969C18.4386 8.01958 18.3766 8.042 18.312 8.042C18.2474 8.042 18.1854 8.01958 18.1397 7.97969C18.094 7.93981 18.0683 7.8857 18.0683 7.82929ZM16.2762 13.8774C16.1474 13.8776 16.0199 13.8554 15.9011 13.812C15.7822 13.7686 15.6745 13.705 15.5843 13.6248L15.5784 13.6303L12.809 11.2905V9.3143L9.56074 11.1648L9.53471 11.1299L9.51273 11.1409L9.56074 11.1652V20.0466C9.59094 20.2296 9.57618 20.4161 9.51742 20.5937C9.45866 20.7713 9.35726 20.9359 9.21996 21.0766C9.08265 21.2174 8.9126 21.331 8.72111 21.4099C8.52961 21.4888 8.32107 21.5312 8.10935 21.5343C7.89762 21.5373 7.68757 21.501 7.49317 21.4277C7.29877 21.3545 7.12447 21.2459 6.98187 21.1092C6.83927 20.9726 6.73163 20.811 6.66612 20.6352C6.60061 20.4594 6.57872 20.2735 6.60192 20.0897V9.65392L6.60865 9.65744C6.60882 9.38538 6.68386 9.11734 6.82747 8.87588C6.97107 8.63442 7.17903 8.42662 7.43384 8.26997L7.43204 8.26723L7.49935 8.23119C7.52313 8.21748 7.54736 8.20495 7.57159 8.19202L11.5064 6.06851C11.6814 5.92984 11.8855 5.8186 12.1099 5.7426L12.1597 5.71597L12.1619 5.72537C12.4683 5.63003 12.7972 5.60318 13.1185 5.64725C13.4398 5.69132 13.7434 5.80492 14.0015 5.97769C14.2596 6.15045 14.4641 6.37689 14.5963 6.63633C14.7284 6.89578 14.7841 7.17999 14.7582 7.46303V10.4734L16.9035 12.3768C17.0562 12.4892 17.1656 12.6398 17.217 12.8083C17.2684 12.9768 17.2593 13.155 17.1909 13.3188C17.1226 13.4826 16.9982 13.6242 16.8347 13.7243C16.6712 13.8244 16.4764 13.8783 16.2766 13.8786L16.2762 13.8774ZM22.8772 14.4106H19.9179L15.8759 10.8189C15.8759 10.8189 15.2266 9.7162 16.4902 9.59007H22.8777V14.4106H22.8772Z" fill="black"/>
</svg>
