<svg width="25" height="26" viewBox="0 0 25 26" fill="none" xmlns="http://www.w3.org/2000/svg">
<path d="M5.46875 0C5.67595 0 5.87466 0.0850876 6.02118 0.236544C6.16769 0.388001 6.25 0.593421 6.25 0.807613V1.61523H18.75V0.807613C18.75 0.593421 18.8323 0.388001 18.9788 0.236544C19.1253 0.0850876 19.324 0 19.5312 0C19.7385 0 19.9372 0.0850876 20.0837 0.236544C20.2302 0.388001 20.3125 0.593421 20.3125 0.807613V1.61523H21.875C22.7038 1.61523 23.4987 1.95558 24.0847 2.5614C24.6708 3.16723 25 3.98891 25 4.84568V22.6132C25 23.4699 24.6708 24.2916 24.0847 24.8974C23.4987 25.5033 22.7038 25.8436 21.875 25.8436H3.125C2.2962 25.8436 1.50134 25.5033 0.915291 24.8974C0.32924 24.2916 0 23.4699 0 22.6132V4.84568C0 3.98891 0.32924 3.16723 0.915291 2.5614C1.50134 1.95558 2.2962 1.61523 3.125 1.61523H4.6875V0.807613C4.6875 0.593421 4.76981 0.388001 4.91632 0.236544C5.06284 0.0850876 5.26155 0 5.46875 0V0ZM1.5625 6.46091V22.6132C1.5625 23.0416 1.72712 23.4524 2.02015 23.7553C2.31317 24.0582 2.7106 24.2284 3.125 24.2284H21.875C22.2894 24.2284 22.6868 24.0582 22.9799 23.7553C23.2729 23.4524 23.4375 23.0416 23.4375 22.6132V6.46091H1.5625Z" fill="black"/>
</svg>
