<svg width="29" height="25" viewBox="0 0 29 25" fill="none" xmlns="http://www.w3.org/2000/svg">
<path fill-rule="evenodd" clip-rule="evenodd" d="M3 0C1.34315 0 0 1.34315 0 3V21.4793C0 23.1362 1.34315 24.4793 3 24.4793H25.041C26.6979 24.4793 28.041 23.1362 28.041 21.4793V3C28.041 1.34315 26.6979 0 25.041 0H3ZM10.734 12.2461C10.734 11.7387 11.0316 11.2254 11.6225 10.8176C12.106 10.4839 12.7594 10.244 13.5052 10.1688V14.3235C12.7594 14.2483 12.106 14.0084 11.6225 13.6747C11.0316 13.2669 10.734 12.7535 10.734 12.2461ZM13.5052 15.3276C12.5692 15.2494 11.7147 14.9533 11.0546 14.4978C10.2806 13.9637 9.734 13.1759 9.734 12.2461C9.734 11.3163 10.2806 10.5285 11.0546 9.9945C11.7147 9.53899 12.5692 9.24289 13.5052 9.16461V6.67503H5.20568C4.59993 6.67503 4.07334 6.8453 3.71193 7.09469C3.34845 7.34552 3.19159 7.64203 3.19159 7.90989V9.14383H6.46266C6.7388 9.14383 6.96266 9.36769 6.96266 9.64383V14.8484C6.96266 15.1246 6.7388 15.3484 6.46266 15.3484H3.19159V16.5842C3.19159 16.8521 3.34845 17.1486 3.71193 17.3994C4.07334 17.6488 4.59993 17.8191 5.20568 17.8191H13.5052V15.3276ZM14.5052 17.8191V15.3276C15.4412 15.2493 16.2957 14.9532 16.9557 14.4978C17.7296 13.9637 18.2763 13.1759 18.2763 12.2461C18.2763 11.3163 17.7296 10.5285 16.9557 9.9945C16.2957 9.53902 15.4412 9.24293 14.5052 9.16462V6.67503H22.8043C23.4101 6.67503 23.9367 6.8453 24.2981 7.09469C24.6616 7.34552 24.8184 7.64203 24.8184 7.90989V9.14383H21.5474C21.2713 9.14383 21.0474 9.36769 21.0474 9.64383V14.8484C21.0474 15.1246 21.2713 15.3484 21.5474 15.3484H24.8184V16.5842C24.8184 16.8521 24.6616 17.1486 24.2981 17.3994C23.9367 17.6488 23.4101 17.8191 22.8043 17.8191H14.5052ZM14.0344 5.67503H22.8043C23.5871 5.67503 24.3175 5.89313 24.866 6.27163C25.4125 6.64871 25.8184 7.21962 25.8184 7.90989V9.63113L25.8186 9.64383V14.8484L25.8184 14.8611V16.5842C25.8184 17.2745 25.4125 17.8454 24.866 18.2225C24.3175 18.601 23.5871 18.8191 22.8043 18.8191H5.20568C4.42295 18.8191 3.69249 18.601 3.14397 18.2225C2.59754 17.8454 2.19159 17.2745 2.19159 16.5842V14.8569L2.19152 14.8484V9.64383L2.19159 9.63535V7.90989C2.19159 7.21962 2.59754 6.64871 3.14397 6.27163C3.69249 5.89313 4.42295 5.67503 5.20568 5.67503H13.9761C13.9858 5.67448 13.9955 5.6742 14.0052 5.6742C14.015 5.6742 14.0247 5.67448 14.0344 5.67503ZM14.5052 10.1688C15.251 10.244 15.9043 10.4839 16.3878 10.8176C16.9787 11.2254 17.2763 11.7387 17.2763 12.2461C17.2763 12.7535 16.9787 13.2669 16.3878 13.6747C15.9043 14.0083 15.251 14.2483 14.5052 14.3235V10.1688ZM3.19159 10.1438V14.3484H5.96266V10.1438H3.19159ZM22.0474 10.1438H24.8184V14.3484H22.0474V10.1438Z" fill="#1B1A1A"/>
</svg>
