<svg width="29" height="25" viewBox="0 0 29 25" fill="none" xmlns="http://www.w3.org/2000/svg">
<path d="M25.0366 0H3.00439C1.34572 0 0 1.17479 0 2.62278V21.8565C0 23.3045 1.34572 24.4793 3.00439 24.4793H25.0366C26.6953 24.4793 28.041 23.3045 28.041 21.8565V2.62278C28.041 1.17479 26.6953 0 25.0366 0ZM15.022 15.7367H12.0176V18.3595C12.0176 18.8403 11.5669 19.2337 11.0161 19.2337H9.01318C8.46237 19.2337 8.01171 18.8403 8.01171 18.3595V6.11983C8.01171 5.63899 8.46237 5.24557 9.01318 5.24557H15.022C18.3331 5.24557 21.0308 7.60061 21.0308 10.4911C21.0308 13.3817 18.3331 15.7367 15.022 15.7367ZM15.022 8.74261H12.0176V12.2397H15.022C16.1236 12.2397 17.0249 11.4528 17.0249 10.4911C17.0249 9.52945 16.1236 8.74261 15.022 8.74261Z" fill="black"/>
</svg>
