<svg width="32" height="32" viewBox="0 0 32 32" fill="none" xmlns="http://www.w3.org/2000/svg">
<path d="M16 1C7.72965 1 1 7.7282 1 16C1 24.2718 7.72965 31 16 31C24.2703 31 31 24.2718 31 16C31 7.7282 24.2703 1 16 1ZM16 30.0009C8.28064 30.0009 2.00094 23.7198 2.00094 16C2.00094 8.28015 8.28064 1.99913 16 1.99913C23.7194 1.99913 29.9991 8.28015 29.9991 16C29.9991 23.7198 23.7194 30.0009 16 30.0009Z" fill="white" stroke="white"/>
<path d="M19.2744 7.58037H16.7786C13.5999 7.54856 13.1939 9.51594 13.1939 11.6452V13.1934H11.7907C11.7273 13.185 11.6628 13.1912 11.6022 13.2117C11.5416 13.2323 11.4865 13.2665 11.4413 13.3117C11.396 13.357 11.3618 13.412 11.3413 13.4726C11.3208 13.5332 11.3145 13.5978 11.323 13.6612V16.4677C11.3145 16.5312 11.3208 16.5957 11.3413 16.6563C11.3618 16.7169 11.396 16.772 11.4413 16.8172C11.4865 16.8625 11.5416 16.8967 11.6022 16.9172C11.6628 16.9377 11.7273 16.944 11.7907 16.9355H13.1939V23.9518C13.1861 24.0154 13.1929 24.0798 13.2139 24.1403C13.2348 24.2008 13.2693 24.2558 13.3147 24.3009C13.3601 24.346 13.4152 24.3802 13.4758 24.4007C13.5364 24.4213 13.601 24.4278 13.6644 24.4196H16.5223C16.7982 24.4514 17.0218 24.2278 16.9339 23.9518L16.9357 16.9355H19.2744C19.3378 16.944 19.4023 16.9377 19.4629 16.9172C19.5235 16.8967 19.5786 16.8625 19.6238 16.8172C19.6691 16.772 19.7033 16.7169 19.7238 16.6563C19.7443 16.5957 19.7506 16.5312 19.7421 16.4677V13.6612C19.7506 13.5978 19.7443 13.5332 19.7238 13.4726C19.7033 13.412 19.6691 13.357 19.6238 13.3117C19.5786 13.2665 19.5235 13.2323 19.4629 13.2117C19.4023 13.1912 19.3378 13.185 19.2744 13.1934H16.9329L16.9357 11.7902C17.0265 11.1924 17.0265 11.2897 17.5812 11.3224H19.2547C19.3847 11.2934 19.5232 11.3093 19.6205 11.2148C19.7178 11.1203 19.7739 10.9912 19.7411 10.8547V8.04813C19.7498 7.98475 19.7437 7.92024 19.7233 7.85962C19.7029 7.799 19.6688 7.7439 19.6236 7.69863C19.5784 7.65336 19.5234 7.61913 19.4628 7.59862C19.4022 7.57811 19.3377 7.57186 19.2744 7.58037V7.58037ZM18.7739 10.3345L17.6008 10.2896C16.1481 10.2896 16.0265 11.0782 16.0265 11.8856L16.0227 13.6593C16.0226 13.725 16.0354 13.7901 16.0605 13.8508C16.0855 13.9115 16.1223 13.9667 16.1687 14.0132C16.2151 14.0597 16.2702 14.0965 16.3309 14.1217C16.3915 14.1469 16.4566 14.1598 16.5223 14.1598H18.8066V15.9672H16.5241C16.3916 15.9672 16.2644 16.0198 16.1706 16.1135C16.0767 16.2072 16.0239 16.3342 16.0237 16.4668L16.0227 23.4841H14.1294V16.4677C14.1294 16.1918 13.9413 15.9682 13.6644 15.9682H12.2585V14.1608H13.6644C13.7301 14.1609 13.7951 14.148 13.8558 14.123C13.9164 14.0979 13.9716 14.0612 14.018 14.0148C14.1116 13.9203 14.1284 13.7931 14.1284 13.6603V11.6442C14.1284 9.54682 14.5522 8.54769 16.7776 8.54769H18.773V10.3345H18.7739Z" fill="white" stroke="white" stroke-width="0.5"/>
</svg>
