<svg width="30" height="20" viewBox="0 0 30 20" fill="none" xmlns="http://www.w3.org/2000/svg">
<path d="M0.941691 0.071085C0.640577 0.150625 0.169021 0.627861 0.0724378 0.940338C-0.0241459 1.28122 -0.0241459 18.7117 0.0724378 19.0526C0.174703 19.3935 0.640577 19.8423 0.981461 19.9276C1.3678 20.0241 27.7295 20.0241 28.1158 19.9276C28.4567 19.8423 28.9226 19.3935 29.0248 19.0526C29.1214 18.7117 29.1214 1.28122 29.0248 0.940338C28.9226 0.599455 28.4567 0.150625 28.1158 0.065403C27.7579 -0.0254993 1.28257 -0.0198174 0.941691 0.071085ZM14.0941 3.3947V5.94565L13.6396 6.04223C11.8159 6.43425 10.4978 8.08753 10.4978 9.99648C10.4978 11.9054 11.8159 13.5587 13.6396 13.9507L14.0941 14.0473V16.5983V19.1435L7.61165 19.1322L1.12918 19.1151L0.992824 18.956L0.85647 18.797V17.3539V15.9108L2.89041 15.8938L4.91867 15.8767L5.24251 15.7233C5.66861 15.5245 6.04358 15.1325 6.1913 14.7348C6.31061 14.428 6.31061 14.3257 6.31061 9.99648C6.31061 5.66726 6.31061 5.56499 6.1913 5.2582C6.04358 4.8605 5.66861 4.46848 5.24251 4.26964L4.91867 4.11624L2.89041 4.09919L0.85647 4.08215V2.65044C0.85647 1.11078 0.873514 1.01988 1.16327 0.90625C1.22576 0.877844 4.16304 0.855118 7.69119 0.855118L14.0941 0.849436V3.3947ZM28.1044 1.03692L28.2408 1.196V2.63908V4.08215L26.2125 4.09919L24.1786 4.11624L23.8548 4.26964C23.4287 4.46848 23.0537 4.8605 22.906 5.2582C22.7867 5.56499 22.7867 5.66726 22.7867 9.99648C22.7867 14.3257 22.7867 14.428 22.906 14.7348C23.0537 15.1325 23.4287 15.5245 23.8548 15.7233L24.1786 15.8767L26.2125 15.8938L28.2408 15.9108V17.3539V18.797L28.1044 18.956L27.9681 19.1151L21.4856 19.1322L15.0031 19.1435V16.5983V14.0473L15.4577 13.9507C17.2814 13.5587 18.5995 11.9054 18.5995 9.99648C18.5995 8.08753 17.2814 6.43425 15.4577 6.04223L15.0031 5.94565V3.3947V0.849436L21.4856 0.860798L27.9681 0.877844L28.1044 1.03692ZM5.00389 5.09344C5.11752 5.16162 5.26523 5.32069 5.33341 5.44L5.4584 5.66726V9.99648V14.3257L5.33341 14.553C5.26523 14.6723 5.11752 14.8314 5.00389 14.8995C4.81072 15.0188 4.74823 15.0245 2.8336 15.0416L0.85647 15.0586V14.3484V13.6383L2.12342 13.6212C3.50968 13.6042 3.62331 13.5758 3.89033 13.2178C4.00964 13.0588 4.00964 13.019 4.00964 9.99648C4.00964 6.97398 4.00964 6.93421 3.89033 6.77513C3.62331 6.4172 3.50968 6.3888 2.12342 6.37175L0.85647 6.35471V5.64453V4.93436L2.8336 4.9514C4.74823 4.96845 4.81072 4.97413 5.00389 5.09344ZM28.2408 5.64453V6.35471L26.9795 6.37175C25.5876 6.3888 25.474 6.4172 25.2069 6.77513C25.0876 6.93421 25.0876 6.97398 25.0876 9.99648C25.0876 13.019 25.0876 13.0588 25.2069 13.2178C25.474 13.5758 25.5876 13.6042 26.9795 13.6212L28.2408 13.6383V14.3484V15.0586L26.2693 15.0416C24.349 15.0245 24.2865 15.0188 24.0934 14.8995C23.9797 14.8314 23.832 14.6723 23.7639 14.553L23.6389 14.3257V9.99648V5.66726L23.7639 5.44569C23.9002 5.20138 24.0877 5.05367 24.349 4.99117C24.4399 4.96845 25.3546 4.9514 26.383 4.94572L28.2408 4.94004V5.64453ZM14.0941 9.99648V13.1724L13.9123 13.1383C12.7817 12.9281 11.7932 11.9907 11.458 10.826C11.3273 10.3885 11.3273 9.60447 11.458 9.167C11.7647 8.08753 12.6624 7.18419 13.7021 6.9058C13.8725 6.86035 14.0259 6.82058 14.0543 6.82058C14.0771 6.8149 14.0941 8.24661 14.0941 9.99648ZM15.6622 6.99671C16.094 7.15578 16.5826 7.49099 16.9235 7.86596C17.8154 8.84316 17.9972 10.2578 17.3836 11.4793C16.9916 12.2634 16.0485 12.9735 15.1906 13.1383L15.0031 13.1724V9.99648V6.8149L15.1906 6.85467C15.2872 6.87172 15.5031 6.93421 15.6622 6.99671ZM3.18584 9.99648V12.7804H2.02116H0.85647V9.99648V7.2126H2.02116H3.18584V9.99648ZM28.2408 9.99648V12.7804H27.0761H25.9114V9.99648V7.2126H27.0761H28.2408V9.99648Z" fill="black"/>
</svg>
