<svg width="25" height="26" viewBox="0 0 25 26" fill="none" xmlns="http://www.w3.org/2000/svg">
<path d="M24.9939 0.83184C24.9922 0.818687 24.9889 0.805881 24.9866 0.792959C24.9834 0.776115 24.9808 0.75927 24.9764 0.742541C24.9724 0.727427 24.9669 0.712659 24.9619 0.697776C24.9573 0.68347 24.953 0.669164 24.9474 0.654973C24.9415 0.640321 24.9343 0.626245 24.9276 0.611939C24.9209 0.597863 24.9146 0.583557 24.907 0.569597C24.8997 0.556329 24.8912 0.543638 24.8831 0.530601C24.8742 0.516295 24.8659 0.501873 24.8558 0.487913C24.8471 0.475452 24.837 0.463684 24.8274 0.45157C24.8168 0.437725 24.8064 0.423881 24.7945 0.410382C24.7829 0.397345 24.7701 0.385 24.7576 0.372424C24.7462 0.360887 24.7357 0.349003 24.7235 0.337812C24.7002 0.316501 24.6757 0.295983 24.65 0.276319C24.6474 0.274357 24.6454 0.272165 24.6428 0.270319C24.6398 0.268012 24.6366 0.266281 24.6337 0.263974C24.608 0.244865 24.5813 0.226619 24.5535 0.209287C24.5392 0.200288 24.5241 0.192558 24.5093 0.184251C24.4921 0.174559 24.4755 0.164522 24.4575 0.155408C24.4405 0.146755 24.4227 0.139255 24.4052 0.131295C24.3884 0.123795 24.3723 0.11595 24.3552 0.108912C24.3376 0.101874 24.3195 0.095875 24.3017 0.0894141C24.2834 0.0829532 24.2654 0.0760308 24.2468 0.0701468C24.2299 0.064955 24.2126 0.0606863 24.1954 0.055956C24.175 0.0504181 24.1549 0.0444186 24.1338 0.0396883C24.1174 0.0359964 24.1006 0.0332275 24.0838 0.029997C24.062 0.0257282 24.0404 0.0211132 24.0181 0.0177674C23.9997 0.0149984 23.9811 0.0134988 23.9625 0.011422C23.9418 0.00911458 23.9212 0.00611472 23.9 0.0044995C23.8692 0.0025009 23.8384 0.00134656 23.8075 0.00103845C23.7983 0.000923074 23.7896 0 23.7805 0H17.6829C17.3594 0 17.0492 0.0972427 16.8205 0.270336C16.5918 0.443429 16.4634 0.678194 16.4634 0.922985C16.4634 1.16778 16.5918 1.40254 16.8205 1.57563C17.0492 1.74873 17.3594 1.84597 17.6829 1.84597H20.8363L17.1115 4.66499C15.8829 3.86672 14.4242 3.29748 12.8525 3.00293C11.2807 2.70838 9.63957 2.69672 8.06077 2.96889C6.48196 3.24105 5.0094 3.78946 3.76121 4.57013C2.51302 5.3508 1.52394 6.342 0.873303 7.46423C0.222666 8.58645 -0.0714155 9.80846 0.0146477 11.0322C0.100711 12.256 0.564523 13.4475 1.36888 14.5111C2.17324 15.5747 3.29575 16.4809 4.64638 17.1568C5.99701 17.8328 7.53817 18.2598 9.14623 18.4036V20.7672H5.48766C5.16423 20.7672 4.85404 20.8644 4.62533 21.0375C4.39663 21.2106 4.26814 21.4453 4.26814 21.6901C4.26814 21.9349 4.39663 22.1697 4.62533 22.3428C4.85404 22.5159 5.16423 22.6131 5.48766 22.6131H9.14623V24.9206C9.14623 25.1654 9.27471 25.4001 9.50342 25.5732C9.73212 25.7463 10.0423 25.8436 10.3657 25.8436C10.6892 25.8436 10.9994 25.7463 11.2281 25.5732C11.4568 25.4001 11.5853 25.1654 11.5853 24.9206V22.6131H15.2438C15.5673 22.6131 15.8775 22.5159 16.1062 22.3428C16.3349 22.1697 16.4634 21.9349 16.4634 21.6901C16.4634 21.4453 16.3349 21.2106 16.1062 21.0375C15.8775 20.8644 15.5673 20.7672 15.2438 20.7672H11.5853V18.4036C13.3783 18.2441 15.0851 17.7326 16.5364 16.9198C17.9876 16.1069 19.1328 15.0211 19.8585 13.7699C20.5841 12.5187 20.8649 11.1457 20.6731 9.78705C20.4812 8.42839 19.8234 7.13129 18.7647 6.02444L22.561 3.1513V5.53791C22.561 5.7827 22.6894 6.01746 22.9181 6.19056C23.1469 6.36365 23.457 6.46089 23.7805 6.46089C24.1039 6.46089 24.4141 6.36365 24.6428 6.19056C24.8715 6.01746 25 5.7827 25 5.53791V0.923215C25 0.892757 24.9979 0.862183 24.9939 0.831724V0.83184ZM10.3657 16.6137C8.79796 16.6137 7.26538 16.2619 5.96181 15.6026C4.65824 14.9434 3.64223 14.0064 3.04226 12.9102C2.44229 11.8139 2.28531 10.6077 2.59117 9.4439C2.89703 8.28013 3.652 7.21114 4.76059 6.37211C5.86919 5.53307 7.28162 4.96169 8.81929 4.7302C10.357 4.49871 11.9508 4.61752 13.3992 5.0716C14.8477 5.52568 16.0857 6.29464 16.9567 7.28123C17.8277 8.26783 18.2926 9.42775 18.2926 10.6143C18.2903 12.2049 17.4543 13.7298 15.9683 14.8545C14.4822 15.9793 12.4674 16.6119 10.3657 16.6137Z" fill="black"/>
</svg>
