<svg width="32" height="32" viewBox="0 0 32 32" fill="none" xmlns="http://www.w3.org/2000/svg">
<path d="M16.0001 19.5555C16.9431 19.5555 17.8474 19.1809 18.5142 18.5141C19.181 17.8474 19.5556 16.943 19.5556 16C19.5556 15.057 19.181 14.1526 18.5142 13.4858C17.8474 12.819 16.9431 12.4444 16.0001 12.4444C15.0571 12.4444 14.1527 12.819 13.4859 13.4858C12.8191 14.1526 12.4445 15.057 12.4445 16C12.4445 16.943 12.8191 17.8474 13.4859 18.5141C14.1527 19.1809 15.0571 19.5555 16.0001 19.5555V19.5555Z" stroke="white" stroke-width="1.6" stroke-linecap="round" stroke-linejoin="round"/>
<path d="M8 19.5556V12.4444C8 11.2657 8.46825 10.1352 9.30175 9.30175C10.1352 8.46825 11.2657 8 12.4444 8H19.5556C20.7343 8 21.8648 8.46825 22.6983 9.30175C23.5317 10.1352 24 11.2657 24 12.4444V19.5556C24 20.7343 23.5317 21.8648 22.6983 22.6983C21.8648 23.5317 20.7343 24 19.5556 24H12.4444C11.2657 24 10.1352 23.5317 9.30175 22.6983C8.46825 21.8648 8 20.7343 8 19.5556Z" stroke="white" stroke-width="1.6"/>
<path d="M20.8888 11.12L20.8977 11.1103" stroke="white" stroke-width="1.6" stroke-linecap="round" stroke-linejoin="round"/>
<circle cx="16" cy="16" r="15" stroke="white" stroke-width="1.6"/>
</svg>
