<svg width="25" height="26" viewBox="0 0 25 26" fill="none" xmlns="http://www.w3.org/2000/svg">
<path d="M12.5 0C9.186 0.00317551 6.00885 1.07387 3.66549 2.97721C1.32214 4.88055 0.00392292 7.46112 1.32987e-05 10.1529C-0.00395589 12.3525 0.880672 14.4925 2.51819 16.2446C2.51819 16.2446 2.8591 16.6091 2.91478 16.6618L12.5 25.8436L22.0898 16.6571C22.1398 16.6082 22.4818 16.2446 22.4818 16.2446L22.4829 16.2418C24.1197 14.4905 25.0039 12.3515 25 10.1529C24.9961 7.46112 23.6779 4.88055 21.3345 2.97721C18.9912 1.07387 15.814 0.00317551 12.5 0ZM12.5 13.8448C11.601 13.8448 10.7222 13.6283 9.97468 13.2226C9.22719 12.8169 8.64459 12.2403 8.30055 11.5657C7.95652 10.8911 7.8665 10.1488 8.04189 9.43259C8.21728 8.71642 8.65019 8.05858 9.28588 7.54225C9.92157 7.02592 10.7315 6.6743 11.6132 6.53185C12.495 6.38939 13.4089 6.4625 14.2395 6.74194C15.07 7.02137 15.7799 7.49458 16.2794 8.10172C16.7789 8.70886 17.0455 9.42266 17.0455 10.1529C17.0439 11.1316 16.5646 12.07 15.7125 12.7621C14.8603 13.4542 13.7051 13.8436 12.5 13.8448Z" fill="black"/>
</svg>
