<svg width="20" height="20" viewBox="0 0 20 20" fill="none" xmlns="http://www.w3.org/2000/svg">
<path d="M6 10C7.93437 10 9.5 7.76339 9.5 5C9.5 2.23661 7.93437 0 6 0C4.06563 0 2.5 2.23661 2.5 5C2.5 7.76339 4.06563 10 6 10ZM8.4 11.4286H8.14062C7.49062 11.875 6.76875 12.1429 6 12.1429C5.23125 12.1429 4.5125 11.875 3.85938 11.4286H3.6C1.6125 11.4286 0 13.7321 0 16.5714V17.8571C0 19.0402 0.671875 20 1.5 20H10.5C11.3281 20 12 19.0402 12 17.8571V16.5714C12 13.7321 10.3875 11.4286 8.4 11.4286ZM15 10C16.6562 10 18 8.08036 18 5.71429C18 3.34821 16.6562 1.42857 15 1.42857C13.3438 1.42857 12 3.34821 12 5.71429C12 8.08036 13.3438 10 15 10ZM16.5 11.4286H16.3813C15.9469 11.6429 15.4875 11.7857 15 11.7857C14.5125 11.7857 14.0531 11.6429 13.6187 11.4286H13.5C12.8625 11.4286 12.275 11.692 11.7594 12.1161C12.5219 13.2902 13 14.8482 13 16.5714V18.2857C13 18.3839 12.9844 18.4777 12.9812 18.5714H18.5C19.3281 18.5714 20 17.6116 20 16.4286C20 13.6652 18.4344 11.4286 16.5 11.4286Z" fill="black"/>
</svg>
