<svg width="207" height="148" viewBox="0 0 207 148" fill="none" xmlns="http://www.w3.org/2000/svg">
<path d="M186.968 77.6789V77.7159C186.934 81.8219 182.46 85.1142 176.952 85.1142C171.443 85.1142 166.969 81.8219 166.935 77.7159V77.6789V67.7688C169.974 69.3927 173.346 70.2842 176.952 70.2842C180.557 70.2842 183.929 69.3964 186.968 67.7688V77.6789Z" fill="#EAC6BB"/>
<path d="M200.323 25.9312V33.3295L193.645 26.0088L193.545 25.9682C192.643 26.3751 185.235 29.6673 176.755 29.6673C168.104 29.6673 160.962 26.2271 160.291 25.9312L160.258 25.9682L153.581 33.4072V25.9312C153.581 11.6154 164.031 0.0369873 176.952 0.0369873C189.872 0.0369873 200.323 11.6154 200.323 25.9312V25.9312Z" fill="#656D78"/>
<path d="M176.952 0.0369873C175.229 0.0369873 173.553 0.258941 171.937 0.647353C182.44 3.18868 190.296 13.5205 190.296 25.9312V27.237C192.036 26.6377 193.221 26.1124 193.545 25.9682L193.645 26.0051L200.323 33.3258V25.9275C200.323 11.6154 189.872 0.0369873 176.952 0.0369873V0.0369873Z" fill="#545C66"/>
<path d="M181.96 103.573H171.943H146.903V88.7765C146.903 82.6358 151.377 77.679 156.919 77.679V77.7159H166.935C166.969 81.822 171.443 85.1143 176.951 85.1143C182.46 85.1143 186.934 81.822 186.968 77.7159H196.984V77.679C202.526 77.679 207 82.6358 207 88.7765V103.573H181.96Z" fill="#32A77A"/>
<path d="M200.323 44.39V44.427C200.323 54.7477 194.847 63.6627 186.968 67.7725C183.929 69.3964 180.557 70.2879 176.952 70.2879C173.346 70.2879 169.974 69.4001 166.935 67.7725C159.056 63.6664 153.581 54.7477 153.581 44.427V44.39V33.4035L160.258 25.9645L160.291 25.9275C160.959 26.2234 168.104 29.6637 176.755 29.6637C185.235 29.6637 192.647 26.3714 193.545 25.9645L193.645 26.0052L200.323 33.3258V44.39Z" fill="#EAC6BB"/>
<path d="M193.645 26.0052L193.545 25.9645C193.221 26.1088 192.039 26.6341 190.296 27.2334V44.3901V44.4271C190.296 54.7478 184.821 63.6628 176.942 67.7725C175.359 68.6196 173.683 69.2522 171.937 69.6813C173.549 70.0697 175.219 70.288 176.952 70.288C180.557 70.288 183.93 69.4002 186.968 67.7725C194.847 63.6665 200.323 54.7478 200.323 44.4271V44.3901V33.3296L193.645 26.0052Z" fill="#D3B1A9"/>
<path d="M116.855 100.14V110.975C116.855 117.116 110.879 122.11 103.5 122.11C96.1214 122.11 90.1451 117.116 90.1451 110.975V100.14V100.1C94.1516 102.323 98.7256 103.577 103.5 103.577C108.274 103.577 112.848 102.319 116.855 100.1V100.14Z" fill="#EAC6BB"/>
<path d="M83.4678 51.7884L73.4517 59.2977V48.0892C73.4517 31.7389 85.4042 18.4958 100.161 18.4958H120.194V33.2925C127.572 33.2925 133.548 39.914 133.548 48.0892V59.2977L123.532 51.7884C123.532 51.7884 116.822 55.4875 105.169 55.4875C93.5173 55.4875 83.4678 51.7884 83.4678 51.7884Z" fill="#965353"/>
<path d="M133.548 59.2977V48.0892C133.548 39.914 127.572 33.2925 120.194 33.2925V18.4958H110.177V33.2925C110.177 39.422 114.661 44.39 120.194 44.39C122.037 44.39 123.532 46.0473 123.532 48.0892V51.7884L133.548 59.2977Z" fill="#844747"/>
<path d="M133.548 59.2977V70.3175C133.548 83.3756 126.737 94.658 116.855 100.096C112.848 102.319 108.274 103.573 103.5 103.573C98.7257 103.573 94.1517 102.315 90.1452 100.096C80.296 94.695 73.5184 83.4903 73.4517 70.4655V70.3175V59.2977L83.4678 51.7884C83.4678 51.7884 93.5173 55.4876 105.169 55.4876C116.822 55.4876 123.532 51.7884 123.532 51.7884L133.548 59.2977Z" fill="#EAC6BB"/>
<path d="M123.532 51.7884L123.522 51.7921V70.3212C123.522 83.3793 116.711 94.6617 106.829 100.1C104.254 101.527 101.433 102.5 98.4851 103.059C100.124 103.366 101.79 103.58 103.5 103.58C108.274 103.58 112.848 102.323 116.855 100.103C126.737 94.6654 133.548 83.383 133.548 70.3249V59.3051L123.532 51.7884Z" fill="#D3B1A9"/>
<path d="M93.4838 148H66.7741C64.9378 148 63.4354 146.335 63.4354 144.301V129.467C63.4354 119.257 70.9141 110.971 80.129 110.971H90.1451C90.1451 117.112 96.1214 122.106 103.5 122.106C110.878 122.106 116.855 117.112 116.855 110.971H126.871C136.086 110.971 143.564 119.257 143.564 129.467V144.301C143.564 146.335 142.062 148 140.226 148H113.516H103.5H93.4838Z" fill="#32A77A"/>
<path d="M126.871 110.971H116.855C126.066 110.979 133.538 119.261 133.538 129.467V144.301C133.538 146.335 132.036 148 130.2 148H140.226C142.062 148 143.565 146.335 143.565 144.301V129.467C143.565 119.257 136.086 110.971 126.871 110.971Z" fill="#28804B"/>
<path d="M53.4194 27.7438V32.8117C47.6768 24.5255 44.2046 23.0089 40.0646 23.967L46.7086 8.91504C50.882 13.8349 53.4194 20.4934 53.4194 27.7438Z" fill="#F6BB42"/>
<path d="M6.67733 30.1112C5.60895 29.9633 4.50717 29.8153 3.33862 29.5933V27.7438C3.33862 12.4292 14.5567 0 28.3789 0C35.6573 0 42.2012 3.44023 46.7085 8.91499L40.0644 23.9706C33.821 25.4133 26.0752 32.5897 6.67733 30.1112Z" fill="#FFCE54"/>
<path d="M40.0646 77.6789V77.7159C40.0312 81.8219 35.5573 85.1142 30.0485 85.1142C24.5396 85.1142 20.0657 81.8219 20.0323 77.7159V77.6789V67.7688C23.0706 69.3927 26.4427 70.2842 30.0485 70.2842C33.6543 70.2842 37.0264 69.3964 40.0646 67.7688V77.6789Z" fill="#EAC6BB"/>
<path d="M53.4194 32.8117V44.3901C53.4194 54.7108 47.9773 63.6258 40.0646 67.7688C37.0264 69.3928 33.6543 70.2843 30.0485 70.2843C26.4427 70.2843 23.0706 69.3965 20.0323 67.7688C12.1196 63.6258 6.67749 54.7108 6.67749 44.3901V30.1113C26.0754 32.5897 33.8212 25.4134 40.0646 23.9707C44.2046 23.0089 47.6768 24.5256 53.4194 32.8117Z" fill="#EAC6BB"/>
<path d="M43.3933 23.8559V44.39C43.3933 54.7107 37.9512 63.6257 30.0384 67.7687C28.4559 68.6158 26.7798 69.2484 25.0337 69.6775C26.6463 70.0659 28.3156 70.2842 30.0484 70.2842C33.6542 70.2842 37.0263 69.3964 40.0646 67.7687C47.9773 63.6257 53.4194 54.7107 53.4194 44.39V32.8116C49.2594 26.8041 46.2879 24.3849 43.3933 23.8559Z" fill="#D3B1A9"/>
<path d="M30.0484 85.1143C35.5573 85.1143 40.0311 81.822 40.0645 77.7159H50.0806V77.679C55.6229 77.679 60.0968 82.6358 60.0968 88.7765V103.573H30.0484H0V88.7765C0 82.6358 4.47387 77.679 10.0161 77.679V77.7159H20.0323C20.0656 81.822 24.5395 85.1143 30.0484 85.1143Z" fill="#32A77A"/>
<path d="M50.0805 77.679V77.7159H40.3816C45.7669 77.912 50.0705 82.7579 50.0705 88.7765V103.573H60.0967V88.7765C60.0967 82.6358 55.6228 77.679 50.0805 77.679Z" fill="#28804B"/>
<path d="M196.984 77.679V77.7159H187.285C192.67 77.912 196.974 82.7579 196.974 88.7765V103.573H207V88.7765C207 82.6358 202.526 77.679 196.984 77.679Z" fill="#28804B"/>
<path d="M30.0483 92.5051C28.202 92.5051 26.7096 94.1587 26.7096 96.2043V103.603H33.387V96.2043C33.387 94.1587 31.8946 92.5051 30.0483 92.5051Z" fill="#E6E9ED"/>
<path d="M171.944 92.5051C170.097 92.5051 168.605 94.1587 168.605 96.2043V103.603H175.282V96.2043C175.282 94.1587 173.79 92.5051 171.944 92.5051Z" fill="#E6E9ED"/>
<path d="M181.96 92.5051C180.113 92.5051 178.621 94.1587 178.621 96.2043V103.603H185.298V96.2043C185.298 94.1587 183.806 92.5051 181.96 92.5051Z" fill="#E6E9ED"/>
<path d="M103.5 133.203C101.654 133.203 100.161 134.857 100.161 136.903V148H106.839V136.903C106.839 134.857 105.346 133.203 103.5 133.203Z" fill="#E6E9ED"/>
<path d="M113.516 133.203C111.67 133.203 110.178 134.857 110.178 136.903V148H116.855V136.903C116.855 134.857 115.363 133.203 113.516 133.203Z" fill="#E6E9ED"/>
<path d="M93.4841 133.203C91.6378 133.203 90.1454 134.857 90.1454 136.903V148H96.8228V136.903C96.8228 134.857 95.3304 133.203 93.4841 133.203Z" fill="#E6E9ED"/>
</svg>
