<svg width="158" height="158" viewBox="0 0 158 158" fill="none" xmlns="http://www.w3.org/2000/svg">
<path d="M155.686 22.0645V147.662C155.686 152.775 151.541 156.92 146.428 156.92H11.5723C6.45918 156.92 2.31445 152.775 2.31445 147.662V22.0645H155.686Z" fill="white"/>
<path d="M146.428 22.0645V147.662C146.428 152.775 142.283 156.92 137.17 156.92H146.428C151.541 156.92 155.686 152.775 155.686 147.662V22.0645H146.428Z" fill="#D8ECFE"/>
<path d="M146.428 3.54883H11.5723C6.45918 3.54883 2.31445 7.69355 2.31445 12.8066V22.0645H155.686V12.8066C155.686 7.69355 151.541 3.54883 146.428 3.54883Z" fill="#32A77A"/>
<path d="M146.428 3.54883H137.17C142.283 3.54883 146.428 7.69355 146.428 12.8066V22.0645H155.686V12.8066C155.686 7.69355 151.541 3.54883 146.428 3.54883Z" fill="#28804B"/>
<path d="M79 126.547C105.269 126.547 126.565 105.251 126.565 78.9821C126.565 52.7128 105.269 31.4174 79 31.4174C52.7307 31.4174 31.4352 52.7128 31.4352 78.9821C31.4352 105.251 52.7307 126.547 79 126.547Z" fill="white"/>
<path d="M99.923 103.678L91.3935 101.873L85.0877 101.518C82.9149 101.059 81.3602 99.1407 81.3602 96.9197V87.0673H76.6393V96.9197C76.6393 99.1407 75.0846 101.059 72.9118 101.518L66.606 101.873L58.0765 103.678C52.5925 104.838 48.4224 109.095 47.2362 114.384C55.658 121.945 66.7909 126.547 79.0001 126.547C91.2093 126.547 102.342 121.945 110.764 114.384C109.577 109.095 105.407 104.838 99.923 103.678Z" fill="white"/>
<path d="M85.2596 107.163L90.6656 108.307C92.5665 108.709 94.3095 109.483 95.8253 110.544C100.363 113.719 100.201 120.558 95.5512 123.567C95.53 123.581 95.5087 123.595 95.4874 123.609C101.169 121.508 106.341 118.355 110.764 114.384C109.577 109.095 105.407 104.839 99.9234 103.678L91.3939 101.874L85.2596 107.163Z" fill="#28804B"/>
<path d="M66.6061 101.873C69.2628 105.893 73.8204 108.547 78.9998 108.547C84.1793 108.547 88.7366 105.893 91.3936 101.873L85.0878 101.518C82.9146 101.059 81.3603 99.1407 81.3603 96.9197V87.0673H72.0105V96.9197C72.0105 99.1407 70.4558 101.059 68.283 101.518L66.6061 101.873Z" fill="#FFCEBF"/>
<path d="M80.4588 106.147L85.2596 107.163C87.7611 105.997 89.8845 104.157 91.3935 101.873L91.3253 101.859L89.7166 101.518C87.5435 101.059 85.9891 99.1407 85.9891 96.9197V87.0673H76.7313V101.549C76.7313 103.77 78.286 105.688 80.4588 106.147Z" fill="#FFB09E"/>
<path d="M96.8583 70.782H61.1414V50.2837C61.1414 46.3895 64.2983 43.2329 68.1921 43.2329H89.8085C93.702 43.2329 96.858 46.3892 96.858 50.2824V70.782H96.8583Z" fill="#E19974"/>
<path d="M89.8088 43.2327H80.551C84.4446 43.2327 87.6005 46.389 87.6005 50.2822V70.7818H96.8584V50.2822C96.8584 46.3887 93.7021 43.2327 89.8088 43.2327Z" fill="#DC8758"/>
<path d="M96.8582 65.5967C95.3298 65.1561 92.8154 64.2201 90.2781 62.1683C88.0516 60.3673 86.6518 58.3895 85.8121 56.933C85.5572 56.4905 84.9641 56.3902 84.5805 56.7262C82.891 58.2065 80.7697 59.7878 78.1754 61.2039C71.3925 64.9064 64.92 65.5446 61.141 65.5967V77.0406C61.141 84.4608 65.6208 90.8292 72.0103 93.563C74.1569 94.4814 78.8796 94.0275 78.8796 94.0275C81.3452 94.0275 83.8143 94.4873 85.9507 93.5791C92.3605 90.8542 96.8579 84.4753 96.8579 77.0406V65.5967H96.8582Z" fill="#FFCEBF"/>
<path d="M90.2781 62.1683C88.0506 60.3667 86.6506 58.388 85.8112 56.9314C85.5554 56.4877 84.9622 56.392 84.5768 56.7296C83.136 57.9918 81.3779 59.3264 79.2835 60.5701C79.7976 61.1064 80.3728 61.6446 81.0203 62.1683C81.443 62.5102 81.8652 62.8213 82.2824 63.1042C85.6464 65.3854 87.6001 69.2394 87.6001 73.3036V77.0406C87.6529 78.2331 87.7538 83.4841 83.842 88.054C79.319 93.3381 72.9953 93.547 72.0103 93.5631C73.1777 94.058 74.9083 94.6496 77.0752 94.8857C77.0752 94.8857 78.05 94.99 78.9993 94.99C88.8622 94.99 96.8579 86.9539 96.8579 77.041V65.5971C95.3298 65.1561 92.8153 64.2201 90.2781 62.1683Z" fill="#FFB09E"/>
<path d="M99.041 74.0695H96.858V65.5964H99.041C101.375 65.5964 103.267 67.4884 103.267 69.8223V69.8436C103.267 72.1778 101.375 74.0695 99.041 74.0695Z" fill="#FFCEBF"/>
<path d="M58.9583 74.0695H61.1413V65.5964H58.9583C56.6244 65.5964 54.7324 67.4884 54.7324 69.8223V69.8436C54.7324 72.1778 56.6244 74.0695 58.9583 74.0695Z" fill="#FFB09E"/>
<path d="M136.821 144.113H34.0339C32.7557 144.113 31.7194 145.15 31.7194 146.428C31.7194 147.706 32.7557 148.742 34.0339 148.742H136.821C138.099 148.742 139.136 147.706 139.136 146.428C139.136 145.15 138.099 144.113 136.821 144.113ZM34.0339 137.672H97.5561C98.8343 137.672 99.8705 136.636 99.8705 135.358C99.8705 134.079 98.8343 133.043 97.5561 133.043H34.0339C32.7557 133.043 31.7194 134.079 31.7194 135.358C31.7194 136.636 32.7557 137.672 34.0339 137.672ZM106.042 135.358C106.042 136.636 107.079 137.672 108.357 137.672H136.821C138.099 137.672 139.136 136.636 139.136 135.358C139.136 134.079 138.099 133.043 136.821 133.043H108.357C107.079 133.043 106.042 134.079 106.042 135.358ZM21.1788 148.742C22.457 148.742 23.4932 147.706 23.4932 146.428C23.4932 145.15 22.457 144.113 21.1788 144.113C19.9006 144.113 18.8643 145.15 18.8643 146.428C18.8643 147.706 19.9006 148.742 21.1788 148.742ZM31.587 9.25781C30.3088 9.25781 29.2726 10.2941 29.2726 11.5723C29.2726 12.8505 30.3088 13.8867 31.587 13.8867C32.8652 13.8867 33.9015 12.8505 33.9015 11.5723C33.9015 10.2941 32.8652 9.25781 31.587 9.25781ZM146.428 0H11.5723C5.19116 0 0 5.19116 0 11.5723V146.428C0 152.809 5.19116 158 11.5723 158H146.428C152.809 158 158 152.809 158 146.428V11.5723C158 5.19116 152.809 0 146.428 0ZM153.371 146.428C153.371 150.256 150.256 153.371 146.428 153.371H11.5723C7.74354 153.371 4.62891 150.256 4.62891 146.428V23.1445H153.371V146.428ZM153.371 18.5156H4.62891V11.5723C4.62891 7.74354 7.74354 4.62891 11.5723 4.62891H146.428C150.256 4.62891 153.371 7.74354 153.371 11.5723V18.5156ZM22.3292 9.25781C21.051 9.25781 20.0148 10.2941 20.0148 11.5723C20.0148 12.8505 21.051 13.8867 22.3292 13.8867C23.6074 13.8867 24.6437 12.8505 24.6437 11.5723C24.6437 10.2941 23.6074 9.25781 22.3292 9.25781ZM21.1788 137.672C22.457 137.672 23.4932 136.636 23.4932 135.358C23.4932 134.079 22.457 133.043 21.1788 133.043C19.9006 133.043 18.8643 134.079 18.8643 135.358C18.8643 136.636 19.9006 137.672 21.1788 137.672ZM79 127.627C106.148 127.627 128.879 105.227 128.879 77.7477C128.879 50.2443 106.503 27.8685 79 27.8685C73.1688 27.8685 67.4564 28.8659 62.0212 30.8331C60.8192 31.2683 60.1977 32.5952 60.6325 33.7972C61.0673 34.9992 62.394 35.6213 63.5965 35.1859C68.5248 33.4019 73.7073 32.4974 78.9997 32.4974C103.951 32.4974 124.25 52.7967 124.25 77.7477C124.25 89.844 119.479 100.846 111.72 108.973C109.521 104.533 105.376 101.232 100.402 100.18L90.1964 98.0196C89.0997 97.7875 88.3038 96.8059 88.3038 95.6857V93.7767C94.7556 90.3924 99.1725 83.6098 99.1725 75.8064V75.1432C102.718 75.0722 105.581 72.1714 105.581 68.588C105.581 65.0263 102.718 62.1255 99.1725 62.0545V49.0479C99.1725 43.8845 94.9719 39.6839 89.8085 39.6839H68.1921C63.0281 39.6839 58.8269 43.8851 58.8269 49.0494V62.0548C55.2815 62.1258 52.418 65.0266 52.418 68.6096C52.418 72.1717 55.2815 75.0722 58.8269 75.1432V75.8064C58.8269 83.6101 63.2438 90.3927 69.6959 93.777V95.6857C69.6959 96.8059 68.8997 97.7875 67.8033 98.0196L57.5984 100.18C52.6233 101.232 48.4782 104.533 46.2795 108.973C38.5208 100.846 33.7497 89.8437 33.7497 77.7477C33.7497 62.4131 41.4241 48.2422 54.2786 39.8407C55.3484 39.1414 55.649 37.7071 54.9497 36.6372C54.2505 35.567 52.8155 35.2661 51.7462 35.966C37.579 45.2253 29.1208 60.8448 29.1208 77.7477C29.1208 105.238 51.9002 127.627 79 127.627ZM99.1728 66.6816C100.166 66.7494 100.953 67.5796 100.953 68.6096C100.953 69.6194 100.166 70.4486 99.1728 70.5164V66.6816ZM58.8269 70.5164C57.8342 70.4486 57.0469 69.6184 57.0469 68.588C57.0469 67.5783 57.8339 66.7491 58.8269 66.6812V70.5164ZM63.4558 49.0491C63.4558 46.4375 65.5805 44.3125 68.1921 44.3125H89.8085C92.4195 44.3125 94.5436 46.4366 94.5436 49.0476V60.9649C93.5514 60.4548 92.6118 59.8444 91.7338 59.1343C90.1557 57.8576 88.838 56.3128 87.8175 54.5427C87.3481 53.7283 86.5473 53.1732 85.6209 53.0195C84.6957 52.8661 83.7607 53.1327 83.0555 53.7509C81.2108 55.367 79.196 56.7757 77.0667 57.9379C72.9479 60.186 68.2838 61.5496 63.4558 61.9354V49.0491ZM63.4558 75.8064V66.5803C69.0608 66.1838 74.4911 64.6177 79.2845 62.0014C81.2021 60.9547 83.0379 59.733 84.7596 58.3591C85.9002 60.0045 87.2617 61.471 88.8228 62.7337C90.5574 64.1366 92.4757 65.2407 94.5439 66.028V75.8064C94.5439 84.4272 87.5709 91.441 78.9997 91.441C70.4288 91.4407 63.4558 84.4272 63.4558 75.8064ZM87.3243 101.829C85.0571 103.848 82.1137 104.998 79 104.998C75.8863 104.998 72.9429 103.848 70.6757 101.829C72.8689 100.619 74.3248 98.2812 74.3248 95.6857V95.5144C75.8264 95.8739 77.3904 96.0695 78.9997 96.0695C80.6093 96.0695 82.1733 95.8736 83.6749 95.5141V95.6854C83.6752 98.2812 85.1311 100.619 87.3243 101.829ZM58.5566 104.708L65.6311 103.211C68.8772 107.251 73.7616 109.627 79 109.627C84.2384 109.627 89.1228 107.251 92.3689 103.211L99.4437 104.708C103.496 105.566 106.777 108.502 108.124 112.35C100.248 118.99 90.0841 122.998 79 122.998C67.9159 122.998 57.7521 118.99 49.8758 112.35C51.2235 108.502 54.5041 105.566 58.5566 104.708ZM13.0714 9.25781C11.7932 9.25781 10.757 10.2941 10.757 11.5723C10.757 12.8505 11.7932 13.8867 13.0714 13.8867C14.3496 13.8867 15.3859 12.8505 15.3859 11.5723C15.3859 10.2941 14.3496 9.25781 13.0714 9.25781Z" fill="#353535"/>
</svg>
