<svg width="40" height="40" viewBox="0 0 40 40" fill="none" xmlns="http://www.w3.org/2000/svg">
<path d="M13.9803 19.2464L15.3513 14.5085C15.6237 13.4435 16.1301 13.1342 17.5117 12.9719L21.5831 13.1853C23.1558 13.141 23.555 13.6722 23.9927 14.9354L24.6159 17.6244C24.9972 19.9266 24.8026 20.6604 23.9927 21.3379L21.0846 23.7281C19.4946 24.6403 18.6857 24.7651 17.5117 23.7281L15.3513 22.0208C14.0262 20.8277 13.6809 20.2139 13.9803 19.2464Z" fill="black"/>
<path d="M10.1992 8.86477L11.4456 8.33972L11.9979 8.13481C12.6045 7.90976 13.1043 7.46489 13.3982 6.88849C14.3122 4.95488 17.5528 0.827458 11.9857 3.0043C8.9499 4.63575 3.44446 10.2182 6.87096 9.84849C6.97037 9.83776 7.07685 9.82269 7.19017 9.8038L10.1992 8.86477Z" fill="#1B1A1A"/>
<path d="M24.657 5.45994L25.8249 7.5941L26.8619 8.39469C27.3746 8.79051 27.9733 9.05916 28.6103 9.17933C30.7227 9.72827 35.7081 11.0941 31.8023 6.64202C30.2884 5.07872 28.9199 4.08981 28.243 3.64168C27.949 3.44705 27.6424 3.27211 27.3293 3.11009C24.4739 1.63254 22.8217 1.80179 23.5769 3.36073L24.657 5.45994Z" fill="#1B1A1A"/>
<path d="M33.005 19.3254L31.4446 21.1759L31.0653 22.4364C30.8735 23.0743 30.8283 23.7482 30.9335 24.4048C31.1444 26.6329 31.5776 31.9152 34.3365 26.6341C35.2564 24.6433 35.7 22.9868 35.882 22.1802C35.9613 21.8288 36.0181 21.4726 36.0607 21.1149C36.4493 17.8549 35.736 16.3147 34.5631 17.5716L33.005 19.3254Z" fill="#1B1A1A"/>
<path d="M22.6831 32.0203L20.5171 30.9994L19.2331 30.9784C18.5832 30.9677 17.941 31.1119 17.3568 31.3995C15.334 32.2314 10.5196 34.1379 16.2267 35.3801C18.3445 35.7299 20.0165 35.7035 20.8212 35.6572C21.1717 35.637 21.5205 35.5933 21.8667 35.5351C25.0217 35.0055 26.261 33.8707 24.7581 33.0659L22.6831 32.0203Z" fill="#1B1A1A"/>
<path d="M7.93615 25.8123L8.38896 23.4085L8.10241 22.1104C7.96034 21.4668 7.6728 20.8636 7.2626 20.3486C5.99712 18.5263 3.0547 14.1718 3.23077 20.1627C3.40123 22.3608 3.82234 24.0242 4.05651 24.8159C4.15825 25.1599 4.28197 25.4971 4.41879 25.8288C5.6664 28.8531 7.033 29.8218 7.43845 28.131L7.93615 25.8123Z" fill="#1B1A1A"/>
<path d="M20.9182 2.08782C19.7134 1.19147 17.6114 2.33661 16.2236 4.6915L14.3541 7.67934C13.8469 8.79588 14.5203 9.25862 15.1434 8.78911C15.7666 8.31959 16.7222 7.67934 16.7222 7.67934C17.4744 7.18406 17.9166 7.5328 18.7163 8.49032L20.9182 12.033C21.2758 12.7485 22.2668 12.825 22.73 12.1729L22.8293 12.033C23.4237 12.8227 24.677 12.2686 24.493 11.2976L24.325 10.4111C24.6875 10.3412 24.9188 9.98352 24.8337 9.62429L24.6158 8.70374C24.9036 8.50663 25.0069 8.1305 24.8602 7.81403L24.6989 7.46592C24.6989 7.46592 22.1231 2.98417 20.9182 2.08782Z" fill="white"/>
<path d="M35.2684 14.6071C35.7177 13.1502 33.9987 11.4603 31.3865 10.8473L28.0379 9.96346C26.8468 9.8199 26.631 10.6221 27.2608 11.0823C27.8905 11.5424 28.7826 12.273 28.7826 12.273C29.4767 12.8509 29.2935 13.3918 28.6603 14.4729L26.0793 17.7344C25.518 18.3214 25.7484 19.2909 26.5087 19.5416L26.6803 19.5982C26.124 20.4469 27.0646 21.4621 27.9392 20.9569L28.6492 20.5468C28.8266 20.8763 29.2445 20.9828 29.5615 20.7793L30.3182 20.2936C30.588 20.5101 30.9779 20.4878 31.2278 20.2417L31.488 19.9854C31.488 19.9854 34.819 16.064 35.2684 14.6071Z" fill="white"/>
<path d="M27.7991 32.6481C29.2866 32.6582 30.3493 30.4712 30.1466 27.7262L29.9778 24.1784C29.759 22.967 28.9492 22.9925 28.7077 23.7467C28.4662 24.5008 28.0507 25.5924 28.0507 25.5924C27.7188 26.4446 27.1616 26.4248 25.9692 26.1232L22.1733 24.5549C21.4715 24.183 20.6279 24.7062 20.6198 25.5184L20.6181 25.696C19.6789 25.4056 18.9875 26.6136 19.6974 27.3046L20.3185 27.909C20.0636 28.1816 20.0815 28.6154 20.3579 28.8604L21.0476 29.472C20.9254 29.803 21.0567 30.1738 21.3568 30.3447L21.6802 30.5289C21.6802 30.5289 26.3116 32.6381 27.7991 32.6481Z" fill="white"/>
<path d="M8.93823 31.1159C9.38251 32.5745 11.7339 32.9475 14.2166 31.9121L17.4539 30.6651C18.5101 30.0816 18.2396 29.2971 17.4668 29.2907C16.694 29.2843 15.5555 29.2107 15.5555 29.2107C14.6643 29.1457 14.5127 28.5946 14.4288 27.3358L14.725 23.1434C14.8559 22.343 14.1141 21.6774 13.3584 21.9172L13.193 21.9697C13.1759 20.9617 11.845 20.6546 11.4206 21.5607L11.0503 22.3513C10.7199 22.1851 10.3231 22.3352 10.1801 22.6806L9.82374 23.5414C9.47972 23.5227 9.17591 23.7645 9.10896 24.1103L9.03688 24.4826C9.03688 24.4826 8.49396 29.6574 8.93823 31.1159Z" fill="white"/>
<path d="M4.79222 12.785C3.71963 13.8439 4.44313 16.1725 6.45225 17.994L8.98207 20.415C9.96146 21.1261 10.5243 20.5275 10.1853 19.814C9.84626 19.1005 9.40273 18.0207 9.40273 18.0207C9.06194 17.1722 9.47454 16.787 10.5338 16.1485L14.3183 14.5516C15.0858 14.3113 15.3346 13.3483 14.7828 12.754L14.6578 12.6194C15.5429 12.1463 15.1856 10.7936 14.1793 10.8077L13.3699 10.8191C13.3674 10.4428 13.0487 10.1439 12.6745 10.167L11.7862 10.2218C11.65 9.89939 11.2964 9.72739 10.962 9.82092L10.6153 9.91792C10.6153 9.91792 5.86482 11.7261 4.79222 12.785Z" fill="white"/>
</svg>
