<svg width="311" height="303" viewBox="0 0 311 303" fill="none" xmlns="http://www.w3.org/2000/svg">
<path d="M108.695 145.653L119.354 109.798C121.472 101.739 125.409 99.3979 136.151 98.1697L167.806 99.7848C180.034 99.4493 183.137 103.469 186.541 113.028L191.386 133.378C194.351 150.8 192.838 156.354 186.541 161.481L163.93 179.57C151.568 186.472 145.279 187.417 136.151 179.57L119.354 166.649C109.052 157.62 106.367 152.975 108.695 145.653Z" fill="black"/>
<path d="M79.3003 67.0859L88.9907 63.1124L93.4169 61.5141C98.0495 59.8413 101.887 56.493 104.172 52.1299C111.279 37.497 136.474 6.26186 93.1899 22.7356C81.0084 29.1074 71.8714 35.6208 66.3466 39.9666C62.164 43.2566 58.6495 47.2891 55.6636 51.6939C41.6044 72.4346 43.4221 76.2177 55.9048 74.1922L79.3003 67.0859Z" fill="#1B1A1A"/>
<path d="M191.709 41.3192L200.79 57.4699L208.792 63.4833C212.818 66.5087 217.492 68.557 222.446 69.4664C238.87 73.6207 277.631 83.9571 247.264 50.2649C232.288 35.2129 219.143 27.1973 216.573 25.6941C216.266 25.5145 215.956 25.3447 215.643 25.1768C191.52 12.2582 177.167 13.0869 183.311 25.433L191.709 41.3192Z" fill="#1B1A1A"/>
<path d="M256.614 146.248L244.481 160.252L241.526 169.815C240.039 174.627 239.69 179.718 240.508 184.687C242.147 201.549 245.516 241.524 266.966 201.558C276.072 182.377 279.175 167.296 279.721 164.369C279.787 164.02 279.842 163.671 279.894 163.319C283.902 136.25 278.272 123.021 268.728 132.976L256.614 146.248Z" fill="#1B1A1A"/>
<path d="M176.361 242.318L159.52 234.593L149.511 234.433C144.476 234.353 139.49 235.444 134.949 237.621C119.221 243.916 81.7892 258.344 126.162 267.744C147.126 271.115 162.472 269.871 165.435 269.576C165.789 269.54 166.139 269.496 166.491 269.447C193.6 265.715 204.723 256.606 192.494 250.231L176.361 242.318Z" fill="#1B1A1A"/>
<path d="M61.7036 195.338L65.2241 177.148L63.0102 167.386C61.8963 162.474 59.6563 157.889 56.4667 153.992C46.6276 140.201 23.7503 107.247 25.1192 152.584C26.8056 173.75 31.647 188.366 32.6349 191.174C32.7529 191.51 32.8792 191.84 33.0097 192.17C43.0519 217.625 54.5349 226.277 57.8339 212.886L61.7036 195.338Z" fill="#1B1A1A"/>
<path d="M162.638 15.8009C153.271 9.01762 136.928 17.6837 126.138 35.5048L111.602 58.1159C107.659 66.5655 112.894 70.0674 117.739 66.5143C122.585 62.9611 130.014 58.1159 130.014 58.1159C135.862 54.3677 139.301 57.0069 145.519 64.2532L162.638 91.0634C165.455 96.5475 173.061 97.1421 176.695 92.1621L177.497 91.0634C182.183 97.1225 191.843 92.7471 190.379 85.2288L189.126 78.7888C191.934 78.2622 193.727 75.4872 193.051 72.7105L191.387 65.8682C193.612 64.3849 194.41 61.4925 193.26 59.0781L192.033 56.5008C192.033 56.5008 172.006 22.5842 162.638 15.8009Z" fill="#32A77A"/>
<path d="M274.21 110.542C277.704 99.5171 264.339 86.7283 244.028 82.0891L217.994 75.4007C208.733 74.3143 207.055 80.3853 211.951 83.8675C216.848 87.3497 223.783 92.8786 223.783 92.8786C229.18 97.2518 227.756 101.345 222.833 109.527L202.766 134.208C198.445 138.606 200.273 146.014 206.143 147.898L207.438 148.313C203.16 154.667 210.351 162.461 217.027 158.708L222.746 155.492C224.129 157.993 227.327 158.822 229.751 157.307L235.723 153.576C237.83 155.222 240.827 155.07 242.757 153.219L244.818 151.244C244.818 151.244 270.717 121.568 274.21 110.542Z" fill="#32A77A"/>
<path d="M216.141 247.068C227.706 247.144 235.969 230.594 234.393 209.82L233.081 182.972C231.379 173.804 225.083 173.997 223.205 179.704C221.327 185.412 218.098 193.672 218.098 193.672C215.517 200.122 211.185 199.972 201.913 197.689L172.4 185.821C166.921 182.995 160.385 186.932 160.322 193.096L160.308 194.457C152.974 192.249 147.655 201.424 153.216 206.692L157.979 211.204C155.999 213.264 156.154 216.564 158.317 218.431L163.648 223.032C162.7 225.532 163.731 228.35 166.07 229.647L168.567 231.031C168.567 231.031 204.575 246.992 216.141 247.068Z" fill="#32A77A"/>
<path d="M69.4925 235.476C72.9468 246.514 91.2285 249.337 110.532 241.501L135.702 232.065C143.914 227.648 141.811 221.711 135.802 221.663C129.794 221.615 120.942 221.058 120.942 221.058C114.013 220.566 112.834 216.395 112.182 206.869L114.485 175.143C115.506 169.063 109.763 164.039 103.873 165.859L102.574 166.26C102.44 158.602 92.0798 156.334 88.7587 163.236L85.9139 169.148C83.3476 167.891 80.252 169.045 79.1335 171.674L76.3774 178.154C73.7069 178.013 71.3381 179.855 70.8164 182.478L70.2595 185.277C70.2595 185.277 66.0383 224.438 69.4925 235.476Z" fill="#32A77A"/>
<path d="M37.2606 96.7529C28.9212 104.766 34.5464 122.389 50.1673 136.173L69.8366 154.494C77.4514 159.876 81.8276 155.346 79.1917 149.947C76.5557 144.547 73.1073 136.375 73.1073 136.375C70.4576 129.954 73.6656 127.039 81.9012 122.207L111.326 110.122C117.223 108.325 119.16 100.945 114.904 96.4841L113.966 95.5C120.761 91.9651 118.171 81.6811 110.512 81.7861L103.952 81.8759C103.933 79.0184 101.52 76.7618 98.6675 76.9332L91.6384 77.3557C90.5739 74.9025 87.8693 73.6034 85.289 74.3059L82.5347 75.0559C82.5347 75.0559 45.6 88.7394 37.2606 96.7529Z" fill="#32A77A"/>
</svg>
