<svg width="29" height="25" viewBox="0 0 29 25" fill="none" xmlns="http://www.w3.org/2000/svg">
<path fill-rule="evenodd" clip-rule="evenodd" d="M3 0C1.34315 0 0 1.34315 0 3V21.4793C0 23.1362 1.34315 24.4793 3 24.4793H25.041C26.6979 24.4793 28.041 23.1362 28.041 21.4793V3C28.041 1.34315 26.6979 0 25.041 0H3ZM15.6153 14.5662C15.7205 14.5048 15.8441 14.4721 15.9706 14.4721C16.1403 14.4721 16.3029 14.5309 16.4229 14.6356C16.5428 14.7402 16.6102 14.8822 16.6102 15.0302C16.6102 15.1406 16.5727 15.2485 16.5024 15.3403C16.4322 15.4321 16.3323 15.5036 16.2154 15.5458C16.0985 15.5881 15.9699 15.5991 15.8458 15.5776C15.7218 15.5561 15.6078 15.5029 15.5184 15.4249C15.4289 15.3468 15.368 15.2474 15.3433 15.1391C15.3186 15.0308 15.3313 14.9186 15.3797 14.8166C15.4281 14.7147 15.5101 14.6275 15.6153 14.5662ZM16.8945 11.2174C16.9997 11.1561 17.1233 11.1234 17.2498 11.1234C17.4195 11.1234 17.5822 11.1822 17.7021 11.2869C17.8221 11.3915 17.8894 11.5335 17.8894 11.6815C17.8894 11.7919 17.8519 11.8998 17.7817 11.9916C17.7114 12.0834 17.6115 12.1549 17.4946 12.1971C17.3777 12.2394 17.2491 12.2504 17.1251 12.2289C17.001 12.2074 16.887 12.1542 16.7976 12.0762C16.7081 11.9981 16.6472 11.8987 16.6225 11.7904C16.5978 11.6821 16.6105 11.5699 16.6589 11.4679C16.7073 11.3659 16.7893 11.2788 16.8945 11.2174ZM18.8844 13.2618C18.7792 13.3231 18.6556 13.3559 18.5291 13.3559C18.3594 13.3559 18.1967 13.2971 18.0768 13.1924C17.9568 13.0877 17.8894 12.9458 17.8894 12.7977C17.8894 12.6874 17.927 12.5795 17.9972 12.4877C18.0675 12.3959 18.1674 12.3244 18.2843 12.2821C18.4012 12.2399 18.5298 12.2288 18.6538 12.2503C18.7779 12.2719 18.8919 12.325 18.9813 12.4031C19.0708 12.4811 19.1317 12.5806 19.1564 12.6889C19.181 12.7971 19.1684 12.9093 19.12 13.0113C19.0716 13.1133 18.9896 13.2005 18.8844 13.2618ZM17.6052 14.378C17.5 14.4394 17.3763 14.4721 17.2498 14.4721C17.0802 14.4721 16.9175 14.4133 16.7976 14.3086C16.6776 14.204 16.6102 14.062 16.6102 13.914C16.6102 13.8036 16.6477 13.6957 16.718 13.6039C16.7883 13.5121 16.8882 13.4406 17.0051 13.3983C17.1219 13.3561 17.2505 13.345 17.3746 13.3666C17.4987 13.3881 17.6127 13.4413 17.7021 13.5193C17.7916 13.5974 17.8525 13.6968 17.8772 13.8051C17.9018 13.9134 17.8892 14.0256 17.8408 14.1276C17.7923 14.2295 17.7104 14.3167 17.6052 14.378ZM15.6153 12.3337C15.7205 12.2724 15.8441 12.2396 15.9706 12.2396C16.1403 12.2396 16.3029 12.2984 16.4229 12.4031C16.5428 12.5078 16.6102 12.6497 16.6102 12.7977C16.6102 12.9081 16.5727 13.016 16.5024 13.1078C16.4322 13.1996 16.3323 13.2711 16.2154 13.3134C16.0985 13.3556 15.9699 13.3667 15.8458 13.3451C15.7218 13.3236 15.6078 13.2704 15.5184 13.1924C15.4289 13.1143 15.368 13.0149 15.3433 12.9066C15.3186 12.7984 15.3313 12.6861 15.3797 12.5842C15.4281 12.4822 15.5101 12.395 15.6153 12.3337ZM21.4428 11.0293C21.3376 11.0907 21.214 11.1234 21.0875 11.1234C20.9178 11.1234 20.7552 11.0646 20.6352 10.9599C20.5153 10.8553 20.4479 10.7133 20.4479 10.5653C20.4479 10.4549 20.4854 10.347 20.5557 10.2552C20.6259 10.1634 20.7258 10.0919 20.8427 10.0496C20.9596 10.0074 21.0882 9.99634 21.2123 10.0179C21.3363 10.0394 21.4503 10.0926 21.5398 10.1706C21.6292 10.2487 21.6901 10.3481 21.7148 10.4564C21.7395 10.5647 21.7268 10.6769 21.6784 10.7789C21.63 10.8808 21.548 10.968 21.4428 11.0293ZM19.2765 11.9916C19.2062 11.8998 19.1687 11.7919 19.1687 11.6815C19.1687 11.5335 19.236 11.3915 19.356 11.2869C19.4759 11.1822 19.6386 11.1234 19.8083 11.1234C19.9348 11.1234 20.0584 11.1561 20.1636 11.2174C20.2688 11.2788 20.3508 11.3659 20.3992 11.4679C20.4476 11.5699 20.4603 11.6821 20.4356 11.7904C20.4109 11.8987 20.35 11.9981 20.2605 12.0762C20.1711 12.1542 20.0571 12.2074 19.9331 12.2289C19.809 12.2504 19.6804 12.2394 19.5635 12.1971C19.4466 12.1549 19.3467 12.0834 19.2765 11.9916ZM18.1737 10.1012C18.2789 10.0399 18.4026 10.0072 18.5291 10.0072C18.6987 10.0072 18.8614 10.066 18.9813 10.1706C19.1013 10.2753 19.1687 10.4172 19.1687 10.5653C19.1687 10.6757 19.1311 10.7836 19.0609 10.8753C18.9906 10.9671 18.8907 11.0387 18.7738 11.0809C18.6569 11.1231 18.5283 11.1342 18.4043 11.1127C18.2802 11.0911 18.1662 11.038 18.0768 10.9599C17.9873 10.8819 17.9264 10.7824 17.9017 10.6742C17.8771 10.5659 17.8897 10.4537 17.9381 10.3517C17.9865 10.2497 18.0685 10.1625 18.1737 10.1012ZM22.0113 11.2174C22.1165 11.1561 22.2402 11.1234 22.3667 11.1234C22.5363 11.1234 22.699 11.1822 22.819 11.2869C22.9389 11.3915 23.0063 11.5335 23.0063 11.6815C23.0063 11.7919 22.9688 11.8998 22.8985 11.9916C22.8282 12.0834 22.7283 12.1549 22.6115 12.1971C22.4946 12.2394 22.366 12.2504 22.2419 12.2289C22.1178 12.2074 22.0039 12.1542 21.9144 12.0762C21.825 11.9981 21.7641 11.8987 21.7394 11.7904C21.7147 11.6821 21.7274 11.5699 21.7758 11.4679C21.8242 11.3659 21.9062 11.2788 22.0113 11.2174ZM23.2906 10.1012C23.3957 10.0399 23.5194 10.0072 23.6459 10.0072C23.8155 10.0072 23.9782 10.066 24.0982 10.1706C24.2181 10.2753 24.2855 10.4172 24.2855 10.5653C24.2855 10.6757 24.248 10.7836 24.1777 10.8753C24.1074 10.9671 24.0075 11.0387 23.8907 11.0809C23.7738 11.1231 23.6452 11.1342 23.5211 11.1127C23.3971 11.0911 23.2831 11.038 23.1936 10.9599C23.1042 10.8819 23.0433 10.7824 23.0186 10.6742C22.9939 10.5659 23.0066 10.4537 23.055 10.3517C23.1034 10.2497 23.1854 10.1625 23.2906 10.1012ZM20.7321 12.3337C20.8373 12.2724 20.961 12.2396 21.0875 12.2396C21.2571 12.2396 21.4198 12.2984 21.5398 12.4031C21.6597 12.5078 21.7271 12.6497 21.7271 12.7977C21.7271 12.9081 21.6896 13.016 21.6193 13.1078C21.549 13.1996 21.4491 13.2711 21.3322 13.3134C21.2154 13.3556 21.0868 13.3667 20.9627 13.3451C20.8386 13.3236 20.7247 13.2704 20.6352 13.1924C20.5458 13.1143 20.4848 13.0149 20.4602 12.9066C20.4355 12.7984 20.4482 12.6861 20.4966 12.5842C20.545 12.4822 20.627 12.395 20.7321 12.3337ZM19.4529 13.4499C19.5581 13.3886 19.6818 13.3559 19.8083 13.3559C19.9779 13.3559 20.1406 13.4147 20.2605 13.5193C20.3805 13.624 20.4479 13.766 20.4479 13.914C20.4479 14.0244 20.4104 14.1323 20.3401 14.2241C20.2698 14.3158 20.1699 14.3874 20.053 14.4296C19.9362 14.4719 19.8076 14.4829 19.6835 14.4614C19.5594 14.4398 19.4454 14.3867 19.356 14.3086C19.2665 14.2306 19.2056 14.1311 19.181 14.0229C19.1563 13.9146 19.1689 13.8024 19.2173 13.7004C19.2658 13.5984 19.3477 13.5112 19.4529 13.4499ZM16.8945 15.6824C16.9997 15.6211 17.1233 15.5883 17.2498 15.5883C17.4195 15.5883 17.5822 15.6471 17.7021 15.7518C17.8221 15.8565 17.8894 15.9984 17.8894 16.1465C17.8894 16.2568 17.8519 16.3647 17.7817 16.4565C17.7114 16.5483 17.6115 16.6198 17.4946 16.6621C17.3777 16.7043 17.2491 16.7154 17.1251 16.6938C17.001 16.6723 16.887 16.6192 16.7976 16.5411C16.7081 16.463 16.6472 16.3636 16.6225 16.2553C16.5978 16.1471 16.6105 16.0349 16.6589 15.9329C16.7073 15.8309 16.7893 15.7437 16.8945 15.6824ZM15.6153 16.7986C15.7205 16.7373 15.8441 16.7046 15.9706 16.7046C16.1403 16.7046 16.3029 16.7634 16.4229 16.868C16.5428 16.9727 16.6102 17.1147 16.6102 17.2627C16.6102 17.3731 16.5727 17.481 16.5024 17.5728C16.4322 17.6645 16.3323 17.7361 16.2154 17.7783C16.0985 17.8206 15.9699 17.8316 15.8458 17.8101C15.7218 17.7885 15.6078 17.7354 15.5184 17.6573C15.4289 17.5793 15.368 17.4798 15.3433 17.3716C15.3186 17.2633 15.3313 17.1511 15.3797 17.0491C15.4281 16.9471 15.5101 16.86 15.6153 16.7986ZM18.1737 14.5662C18.2789 14.5048 18.4026 14.4721 18.5291 14.4721C18.6987 14.4721 18.8614 14.5309 18.9813 14.6356C19.1013 14.7402 19.1687 14.8822 19.1687 15.0302C19.1687 15.1406 19.1311 15.2485 19.0609 15.3403C18.9906 15.4321 18.8907 15.5036 18.7738 15.5458C18.6569 15.5881 18.5283 15.5991 18.4043 15.5776C18.2802 15.5561 18.1662 15.5029 18.0768 15.4249C17.9873 15.3468 17.9264 15.2474 17.9017 15.1391C17.8771 15.0308 17.8897 14.9186 17.9381 14.8166C17.9865 14.7147 18.0685 14.6275 18.1737 14.5662ZM18.9428 6.46101L19.3945 6.85553C19.4539 6.90735 19.5011 6.96889 19.5332 7.03661C19.5654 7.10433 19.5819 7.17692 19.5819 7.25022C19.5819 7.32352 19.5654 7.39611 19.5332 7.46383C19.5011 7.53156 19.4539 7.59309 19.3945 7.64492L12.6235 13.5529C12.5641 13.6048 12.4936 13.6459 12.416 13.674C12.3384 13.702 12.2552 13.7165 12.1712 13.7165C12.0872 13.7165 12.004 13.702 11.9264 13.674C11.8487 13.6459 11.7782 13.6048 11.7188 13.5529L11.2671 13.1584C11.1473 13.0538 11.0799 12.9119 11.0799 12.7639C11.0799 12.6159 11.1473 12.474 11.2671 12.3694L11.4934 12.1716C10.6738 11.4458 10.2144 10.4679 10.2142 9.44903C10.2142 8.7779 10.426 8.15559 10.771 7.60515L10.3713 7.25633C10.1183 7.03487 9.81024 6.86722 9.47104 6.76638C9.13184 6.66554 8.77058 6.63422 8.41527 6.67484C7.216 6.80495 6.37652 7.7834 6.37652 8.8351V19.4952C6.37652 19.6432 6.30913 19.7851 6.18918 19.8898C6.06923 19.9945 5.90655 20.0533 5.73691 20.0533H4.4577C4.28806 20.0533 4.12538 19.9945 4.00543 19.8898C3.88548 19.7851 3.81809 19.6432 3.81809 19.4952V8.92056C3.81809 6.55065 6.03633 4.40853 8.75266 4.42597C10.0386 4.43158 11.2697 4.88118 12.177 5.6765L12.5767 6.02533C13.2091 5.72708 13.9223 5.5422 14.6914 5.5422C15.8591 5.54223 16.9799 5.94319 17.8115 6.65844L18.0382 6.46101C18.0975 6.40917 18.1681 6.36804 18.2457 6.33999C18.3233 6.31193 18.4065 6.29749 18.4905 6.29749C18.5745 6.29749 18.6577 6.31193 18.7353 6.33999C18.8129 6.36804 18.8834 6.40917 18.9428 6.46101Z" fill="black"/>
</svg>
