<svg width="25" height="26" viewBox="0 0 25 26" fill="none" xmlns="http://www.w3.org/2000/svg">
<path d="M12.5 0C5.6075 0 0 5.79673 0 12.9218C0 20.0469 5.6075 25.8436 12.5 25.8436C19.3925 25.8436 25 20.0469 25 12.9218C25 5.79673 19.3925 0 12.5 0ZM12.5 23.2593C6.98625 23.2593 2.5 18.6216 2.5 12.9218C2.5 7.222 6.98625 2.58436 12.5 2.58436C18.0138 2.58436 22.5 7.222 22.5 12.9218C22.5 18.6216 18.0138 23.2593 12.5 23.2593Z" fill="black"/>
<path d="M13.75 6.46045H11.25V13.4564L15.3663 17.7116L17.1338 15.8844L13.75 12.3865V6.46045Z" fill="black"/>
</svg>
