<svg width="32" height="32" viewBox="0 0 32 32" fill="none" xmlns="http://www.w3.org/2000/svg">
<path d="M16 1C7.72965 1 1 7.7282 1 16C1 24.2718 7.72965 31 16 31C24.2703 31 31 24.2718 31 16C31 7.7282 24.2703 1 16 1ZM16 30.0009C8.28064 30.0009 2.00094 23.7198 2.00094 16C2.00094 8.28015 8.28064 1.99913 16 1.99913C23.7194 1.99913 29.9991 8.28015 29.9991 16C29.9991 23.7198 23.7194 30.0009 16 30.0009Z" fill="white" stroke="white" stroke-width="0.7"/>
<path d="M24.2261 11.3655C24.3299 11.1734 24.4154 10.972 24.4815 10.7639C24.5121 10.6674 24.5127 10.5639 24.4833 10.467C24.4538 10.3702 24.3957 10.2845 24.3165 10.2214C24.2374 10.1582 24.141 10.1206 24.04 10.1134C23.939 10.1062 23.8382 10.1298 23.7509 10.1811C23.2716 10.4659 22.7527 10.6781 22.2112 10.8107C21.5538 10.2174 20.7 9.88846 19.8145 9.88736C19.3334 9.88773 18.8574 9.98525 18.4149 10.1741C17.9724 10.3629 17.5726 10.6391 17.2394 10.9862C16.9062 11.3333 16.6466 11.744 16.476 12.1939C16.3054 12.6437 16.2274 13.1234 16.2467 13.6042C14.1429 13.3393 12.2218 12.2746 10.8819 10.6311C10.8305 10.5688 10.7649 10.5199 10.6906 10.4884C10.6163 10.4569 10.5355 10.4438 10.4551 10.4503C10.3746 10.4567 10.2969 10.4824 10.2286 10.5253C10.1602 10.5682 10.1032 10.627 10.0624 10.6966C9.75561 11.2232 9.58885 11.8197 9.57804 12.4291C9.56724 13.0384 9.71274 13.6404 10.0007 14.1776C9.93006 14.1895 9.86222 14.2143 9.80049 14.2506C9.72486 14.2988 9.66259 14.3653 9.61943 14.444C9.57626 14.5226 9.5536 14.6109 9.55353 14.7006C9.55353 15.7624 10.0259 16.7372 10.7874 17.3995L10.7547 17.4323C10.6972 17.4973 10.6576 17.5762 10.6399 17.6612C10.6222 17.7461 10.6269 17.8343 10.6536 17.9169C10.8124 18.4122 11.0775 18.8669 11.4304 19.2491C11.7833 19.6313 12.2155 19.9317 12.6967 20.1293C11.7084 20.6115 10.6025 20.7995 9.5105 20.671C9.39825 20.6596 9.28538 20.6857 9.18956 20.7453C9.09375 20.8049 9.02041 20.8946 8.98104 21.0003C8.94322 21.1068 8.94251 21.223 8.97902 21.33C9.01553 21.437 9.08711 21.5285 9.18216 21.5897C10.6667 22.5426 12.3938 23.0488 14.1578 23.0481C19.9389 23.0481 23.3945 18.3519 23.3945 13.8118L23.3936 13.6584C23.9538 13.221 24.4405 12.6967 24.8351 12.1055C24.8949 12.0161 24.9242 11.9098 24.9189 11.8024C24.9136 11.6951 24.8738 11.5923 24.8055 11.5092C24.7372 11.4262 24.6439 11.3674 24.5396 11.3415C24.4352 11.3156 24.3253 11.324 24.2261 11.3655V11.3655ZM22.5938 13.0073C22.5259 13.0561 22.4713 13.1212 22.435 13.1965C22.3988 13.2718 22.3819 13.3551 22.3861 13.4386C22.3917 13.5621 22.3945 13.6874 22.3945 13.8109C22.3945 17.8598 19.3141 22.0481 14.1588 22.0481C13.2393 22.0485 12.3264 21.8942 11.4581 21.5916C12.498 21.3923 13.4748 20.9463 14.3066 20.2912C14.3875 20.2273 14.4468 20.1401 14.4763 20.0412C14.5058 19.9424 14.504 19.8369 14.4712 19.7391C14.4385 19.6414 14.3763 19.5561 14.2933 19.495C14.2102 19.4339 14.1103 19.3999 14.0072 19.3978C13.6039 19.3901 13.208 19.2877 12.8515 19.0989C12.495 18.91 12.1878 18.6401 11.9548 18.3107C12.1915 18.2948 12.4235 18.2555 12.6489 18.1947C12.7581 18.1655 12.8541 18.1002 12.9213 18.0094C12.9885 17.9186 13.0229 17.8077 13.019 17.6948C13.0151 17.582 12.9731 17.4737 12.8997 17.3878C12.8264 17.3019 12.7261 17.2434 12.6153 17.2218C12.1597 17.1291 11.7379 16.9143 11.3951 16.6004C11.0522 16.2865 10.801 15.8853 10.6686 15.4396C10.9174 15.5023 11.1728 15.5388 11.4282 15.5472C11.648 15.5463 11.8519 15.4116 11.9202 15.2001C11.9885 14.9887 11.9081 14.7558 11.7219 14.6323C11.2818 14.339 10.9429 13.917 10.7515 13.4239C10.5601 12.9308 10.5256 12.3906 10.6527 11.8772C12.2776 13.5446 14.4717 14.5375 16.7968 14.6575C16.9614 14.6585 17.1055 14.5995 17.2055 14.4789C17.3056 14.3582 17.344 14.1982 17.3084 14.0448C17.1805 13.4938 17.2377 12.9159 17.4713 12.4007C17.7048 11.8855 18.1016 11.4616 18.6003 11.1947C19.099 10.9277 19.6718 10.8326 20.23 10.924C20.7882 11.0155 21.3007 11.2883 21.6882 11.7004C21.7463 11.7624 21.8192 11.8085 21.9001 11.8345C21.9809 11.8606 22.067 11.8656 22.1504 11.8491C22.3047 11.8183 22.4572 11.7827 22.6078 11.7415C22.5399 11.7924 22.4693 11.8395 22.3964 11.8828C22.2994 11.9422 22.2255 12.0329 22.187 12.14C22.1484 12.247 22.1474 12.364 22.1843 12.4716C22.2211 12.5792 22.2935 12.6711 22.3895 12.7321C22.4855 12.7931 22.5995 12.8195 22.7126 12.8071L22.8828 12.7856C22.7891 12.8628 22.6926 12.9368 22.5938 13.0073V13.0073Z" fill="white" stroke="white" stroke-width="0.5"/>
</svg>
